<?xml version="1.0" standalone="no"?>
<!DOCTYPE svg PUBLIC "-//W3C//DTD SVG 20010904//EN"
 "http://www.w3.org/TR/2001/REC-SVG-20010904/DTD/svg10.dtd">
<svg version="1.0" xmlns="http://www.w3.org/2000/svg"
 width="1924.000000pt" height="1924.000000pt" viewBox="0 0 1924.000000 1924.000000"
 preserveAspectRatio="xMidYMid meet">
<metadata>
Created by potrace 1.11, written by Peter Selinger 2001-2013
</metadata>
<g transform="translate(0.000000,1924.000000) scale(0.100000,-0.100000)"
fill="#000000" stroke="none">
<path d="M20 9620 l0 -9620 9601 0 9600 0 -3 44 -3 43 -9545 9577 -9544 9576
-53 0 -53 0 0 -9620z m3621 4733 c16 -19 43 -62 60 -96 17 -34 40 -74 50 -88
16 -23 17 -29 4 -65 -22 -60 -17 -127 22 -289 4 -17 -9 -28 -82 -64 -183 -93
-466 -308 -703 -535 l-111 -107 -10 38 c-24 85 -6 178 89 455 55 159 70 216
70 260 l0 58 45 -34 c73 -56 135 -59 191 -8 17 15 69 80 116 143 63 85 94 119
117 127 64 22 74 102 30 229 -10 31 -19 58 -19 60 0 12 106 -56 131 -84z m623
-206 c52 -89 58 -119 66 -362 5 -126 13 -245 19 -264 9 -30 8 -34 -10 -38 -44
-12 -177 -83 -244 -131 -82 -58 -189 -160 -264 -251 -30 -36 -121 -166 -204
-290 -298 -447 -468 -642 -632 -721 -47 -23 -48 -23 -62 -4 -38 52 -83 260
-83 382 0 99 28 249 71 380 l41 127 112 108 c304 296 600 509 806 581 41 15
81 29 87 31 9 3 5 26 -17 84 -34 92 -63 227 -56 256 5 18 13 20 93 20 76 0 96
4 146 28 42 21 63 39 80 68 12 21 23 39 24 39 1 0 13 -19 27 -43z m-2942 -592
l40 -79 -6 -176 c-4 -96 -11 -242 -17 -323 -6 -81 -9 -150 -7 -153 12 -11 140
-20 144 -10 2 6 17 155 34 331 17 176 32 325 34 331 2 5 24 16 47 23 24 7 85
32 135 56 72 35 94 50 109 79 l19 35 33 -58 c86 -152 143 -346 143 -484 l0
-74 -52 -64 c-140 -174 -247 -380 -299 -574 -29 -108 -43 -300 -29 -403 32
-254 138 -676 255 -1020 95 -283 164 -451 280 -687 153 -309 265 -479 433
-656 45 -48 89 -103 97 -123 9 -22 15 -68 15 -123 0 -103 21 -245 48 -323 28
-79 56 -134 119 -224 86 -123 106 -175 111 -284 8 -164 -35 -356 -115 -520
-34 -69 -64 -112 -120 -172 -97 -104 -177 -145 -319 -167 -55 -8 -112 -18
-129 -22 l-30 -7 79 -64 c43 -36 120 -97 171 -136 l93 -71 -285 -6 c-158 -4
-348 -7 -424 -7 l-138 0 -32 46 c-47 68 -141 273 -189 409 -178 513 -301 1174
-455 2455 -101 845 -113 900 -186 920 -77 21 -126 84 -179 230 -59 161 -96
395 -150 950 -24 240 -42 354 -68 432 l-17 53 43 85 c23 47 49 112 57 145 21
83 36 247 28 313 l-6 56 48 -35 c195 -140 371 -306 425 -403 l31 -54 67 28
c37 15 66 32 65 37 -1 4 -35 84 -77 177 l-75 168 40 78 c21 43 46 110 56 149
l17 72 24 -38 c12 -21 41 -74 64 -118z m3554 -159 c5 -37 2 -53 -20 -92 -23
-42 -26 -57 -26 -149 0 -99 -1 -104 -32 -151 -77 -113 -317 -249 -729 -413
l-157 -62 -10 -42 c-30 -121 -37 -213 -37 -472 1 -285 11 -405 61 -720 51
-316 128 -651 208 -901 l42 -130 -45 7 c-80 13 -268 10 -346 -6 -41 -9 -141
-43 -222 -76 -82 -34 -156 -63 -165 -66 -28 -8 -21 -23 10 -23 15 -1 -25 -16
-88 -35 -185 -54 -306 -107 -334 -147 -21 -30 -20 -71 2 -97 9 -12 43 -32 75
-45 l58 -23 -45 -6 c-65 -9 -155 -43 -202 -75 l-40 -29 -45 56 -45 56 8 205
c21 582 100 1309 206 1914 6 36 12 41 57 59 206 82 429 322 737 792 131 199
187 275 272 364 112 118 261 218 373 251 39 12 47 11 101 -14 79 -35 177 -36
242 -3 38 19 48 30 65 77 12 30 25 64 29 75 7 19 8 18 22 -7 8 -15 17 -47 20
-72z m-2685 -502 c59 -52 85 -64 140 -64 45 0 91 20 133 59 l28 26 -7 -50
c-16 -114 -105 -335 -152 -377 -14 -13 -57 -22 -159 -34 -98 -11 -156 -23
-195 -40 -62 -27 -149 -42 -149 -27 0 49 103 274 173 378 48 71 126 175 132
175 2 0 27 -21 56 -46z m4035 -1254 c82 -66 167 -129 190 -140 62 -31 122 -26
205 15 l70 36 49 -27 c108 -59 332 -263 573 -521 167 -180 408 -455 403 -461
-2 -1 -27 3 -56 9 -70 15 -124 0 -145 -41 -36 -71 -3 -110 140 -165 183 -69
309 -124 392 -171 87 -50 193 -137 181 -149 -4 -4 -53 -3 -108 4 -158 17 -307
14 -380 -8 -126 -39 -177 -96 -241 -269 -56 -147 -89 -206 -172 -304 -40 -46
-109 -129 -154 -184 -209 -255 -451 -434 -663 -490 -80 -21 -234 -24 -310 -5
-70 17 -183 69 -257 117 -205 135 -743 767 -883 1038 -39 74 -39 74 -24 123
23 77 62 176 82 205 l18 28 108 -150 c185 -254 283 -326 371 -271 52 32 196
172 293 286 267 312 355 552 268 730 -60 121 -290 319 -386 332 -33 5 -45 13
-69 50 -16 24 -35 67 -41 95 -16 66 -7 163 18 197 23 32 102 81 190 117 40 16
85 45 111 70 34 33 49 41 61 34 9 -5 84 -63 166 -130z m-2040 -1545 c199 -34
468 -140 689 -269 90 -54 96 -59 168 -163 205 -296 561 -705 735 -844 428
-343 903 -280 1362 181 58 58 150 160 205 228 55 67 119 146 143 175 51 61
109 171 146 277 57 160 99 197 238 207 67 5 380 -21 400 -33 4 -3 8 -33 8 -67
0 -60 -1 -62 -50 -108 -53 -50 -200 -127 -380 -200 -58 -23 -109 -45 -113 -49
-5 -4 2 -36 13 -71 17 -50 21 -77 16 -121 -21 -181 -154 -425 -429 -788 -60
-80 -114 -149 -119 -155 -14 -13 -4 105 32 380 16 121 27 221 25 223 -2 2 -27
-48 -56 -110 -115 -245 -271 -548 -333 -645 -220 -349 -498 -627 -794 -795
-121 -69 -216 -112 -209 -95 47 108 177 443 175 449 -2 4 -88 -74 -193 -174
-104 -99 -245 -222 -312 -272 -335 -252 -673 -392 -1058 -437 -95 -11 -388 -7
-477 7 l-37 6 142 122 142 121 -75 7 c-41 3 -154 11 -250 17 -411 26 -649 89
-915 244 l-70 41 45 12 45 12 -67 1 c-62 1 -71 4 -136 49 -100 69 -191 136
-192 142 0 3 30 21 68 40 87 45 214 170 271 267 86 145 141 313 166 502 30
222 0 343 -133 536 -93 135 -123 224 -138 405 -8 102 6 144 60 185 68 52 144
68 313 68 l152 -1 15 33 c43 89 -5 164 -139 219 l-59 24 90 27 c178 55 267 69
439 69 152 1 168 -1 323 -38 90 -21 165 -36 168 -33 3 2 -42 40 -98 83 -57 43
-116 88 -131 101 l-29 23 55 0 c30 0 94 -7 143 -15z m4543 -1601 c366 -76 660
-312 921 -740 l57 -94 47 36 c25 19 53 48 61 64 55 106 -43 263 -317 511 -48
43 -82 79 -75 79 35 0 172 -46 252 -85 191 -92 240 -151 405 -490 95 -195 166
-385 199 -536 23 -109 43 -295 36 -348 -2 -20 -7 -61 -10 -93 l-5 -56 78 -49
c42 -27 113 -69 157 -93 215 -116 424 -250 663 -427 82 -61 137 -93 205 -119
632 -249 1343 -725 1723 -1154 274 -309 366 -523 324 -751 -25 -135 -133 -287
-259 -363 -104 -63 -170 -80 -311 -80 -146 0 -181 10 -415 124 -408 199 -1348
772 -1865 1138 -242 171 -269 195 -357 320 -37 50 -70 92 -75 92 -11 0 -10
-196 1 -235 17 -62 365 -544 576 -800 144 -174 427 -454 540 -534 83 -59 216
-131 263 -143 11 -3 30 -25 42 -49 77 -151 261 -254 601 -336 172 -42 160 -26
134 -179 -66 -384 -302 -821 -844 -1559 -97 -132 -203 -280 -236 -329 l-60
-89 -237 -126 c-130 -69 -277 -152 -325 -183 -98 -63 -205 -167 -228 -221 -8
-19 -22 -37 -30 -41 -26 -9 -145 -7 -321 6 -184 13 -221 8 -278 -43 -19 -16
-37 -26 -40 -21 -3 5 -6 50 -8 101 -4 113 -13 103 197 222 81 46 149 89 152
95 6 16 -56 124 -71 124 -7 0 -68 -32 -137 -72 -188 -109 -216 -121 -261 -115
-22 3 -67 22 -100 42 -55 35 -64 37 -122 33 -50 -3 -82 -13 -156 -50 -52 -26
-96 -46 -97 -44 -6 6 47 139 72 182 78 133 272 226 635 305 58 12 109 25 113
29 10 8 -167 115 -225 136 -61 22 -153 20 -215 -5 -29 -11 -93 -45 -142 -76
-49 -30 -93 -55 -98 -55 -4 1 -20 18 -35 40 -15 22 -52 56 -82 76 -60 40 -195
90 -269 100 -26 4 -50 10 -52 14 -12 19 113 165 194 228 75 57 141 76 250 70
99 -6 174 -29 471 -148 234 -93 287 -110 356 -110 40 0 62 -6 90 -25 29 -20
49 -25 98 -25 201 1 358 121 476 365 92 190 135 393 128 613 -4 119 -7 143
-27 182 -39 75 -88 126 -175 185 -129 85 -286 153 -686 295 -481 171 -691 279
-836 432 -170 179 -342 478 -624 1083 -263 564 -360 744 -436 801 -36 28 -41
29 -173 32 -87 3 -132 0 -126 -6 6 -5 39 -31 74 -56 43 -31 70 -60 82 -85 9
-21 37 -69 63 -107 25 -37 44 -69 42 -71 -1 -2 -63 22 -137 53 -184 76 -481
174 -679 224 -242 60 -454 96 -809 135 -1594 179 -2753 430 -3060 663 -86 65
-294 266 -503 485 -364 382 -432 458 -420 466 7 4 75 22 151 40 l139 33 104
-65 c276 -173 515 -258 851 -302 65 -8 132 -15 148 -15 28 0 22 -7 -77 -92
l-108 -92 98 -32 c292 -98 694 -104 1040 -14 247 64 483 170 696 312 69 45
131 87 138 91 7 5 -1 -19 -17 -52 -17 -33 -31 -65 -31 -70 0 -24 307 77 465
154 204 98 362 212 551 398 l132 128 98 -64 c55 -35 261 -160 459 -277 859
-509 1169 -714 1525 -1009 135 -111 336 -312 400 -398 36 -49 52 -63 80 -68
76 -15 412 -116 542 -164 339 -124 519 -216 903 -462 925 -593 1617 -1017
1862 -1141 119 -60 178 -70 268 -43 45 13 69 28 110 68 87 87 93 169 28 351
-56 156 -152 321 -247 423 -359 388 -1547 1086 -2351 1382 -347 128 -656 318
-852 524 -145 153 -321 403 -485 692 -78 136 -274 522 -373 734 -46 100 -119
182 -211 241 -35 22 -64 43 -64 47 0 10 218 -6 299 -23z m-725 -3406 l148 -63
-93 -6 c-158 -11 -274 -40 -461 -115 -62 -25 -117 -49 -121 -53 -9 -9 243
-132 466 -228 171 -73 382 -145 480 -163 l68 -12 64 -127 c35 -69 89 -172 120
-229 38 -70 52 -104 43 -106 -7 -3 -111 -34 -230 -71 -640 -194 -1004 -346
-1111 -464 l-34 -38 -6 -149 c-4 -101 -12 -176 -26 -232 -28 -112 -27 -138 14
-285 42 -155 88 -269 127 -312 15 -18 99 -81 186 -141 86 -59 174 -121 194
-137 l38 -29 -27 -35 c-38 -49 -237 -223 -378 -329 -579 -436 -1250 -748
-1858 -864 -59 -11 -118 -20 -131 -20 -16 0 -42 24 -93 88 -39 48 -113 128
-164 177 -157 152 -269 221 -514 320 -350 142 -485 247 -590 460 -64 130 -105
287 -129 485 l-5 45 48 1 c120 4 201 104 201 248 0 74 -29 142 -88 205 l-41
44 47 -7 c71 -9 170 -62 229 -122 31 -32 68 -86 92 -135 50 -99 52 -137 16
-294 -31 -139 -33 -243 -4 -320 42 -114 166 -210 324 -251 104 -28 395 -26
565 4 279 48 533 136 747 260 56 32 65 41 80 86 28 79 23 202 -11 301 -62 183
-220 394 -440 590 -48 43 -98 97 -111 120 -68 115 -86 343 -39 483 14 42 37
97 51 122 77 134 243 317 405 443 212 166 882 537 1312 726 132 59 452 184
486 190 3 1 72 -27 154 -61z m-4444 -2503 c36 -8 110 -31 165 -52 l100 -39 12
-106 c54 -496 232 -786 588 -966 34 -17 123 -55 198 -86 225 -91 335 -155 460
-266 61 -54 187 -196 187 -211 0 -8 -74 -10 -262 -6 -273 5 -381 17 -581 67
-106 27 -300 91 -293 97 2 3 -11 19 -31 36 -106 93 -243 383 -309 652 -27 111
-30 168 -12 226 6 22 9 41 7 44 -3 2 -39 11 -81 20 -89 18 -132 34 -171 65
l-28 22 39 42 c64 69 76 165 36 279 -34 97 -102 156 -178 157 -38 0 -22 19 26
30 48 11 56 11 128 -5z m6122 -180 c125 -22 146 -36 195 -134 53 -106 217
-520 209 -528 -11 -11 -120 25 -333 110 l-210 83 49 54 c72 80 103 150 103
231 0 54 -5 72 -27 106 -25 38 -32 42 -105 58 -43 9 -85 21 -93 26 -24 14 126
10 212 -6z m-6275 -431 c40 -41 167 -114 200 -114 8 0 13 -13 13 -35 0 -56 28
-179 70 -307 23 -73 34 -118 26 -118 -33 0 -193 31 -238 46 -77 25 -129 83
-161 178 -56 166 -115 220 -240 221 l-68 0 38 32 c21 18 66 46 101 63 57 29
185 78 206 79 5 1 29 -20 53 -45z m397 -741 c26 -53 63 -120 82 -150 19 -29
34 -57 34 -62 0 -12 -94 -25 -186 -25 -87 -1 -100 7 -215 128 l-86 91 151 57
c83 31 156 57 161 57 6 1 32 -43 59 -96z"/>
<path d="M6630 11255 c0 -2 16 -13 35 -25 39 -24 65 -66 65 -104 0 -13 -20
-62 -44 -108 -24 -46 -47 -100 -51 -120 -20 -106 82 -202 297 -277 104 -36
256 -67 269 -54 11 11 -20 138 -55 220 -81 192 -213 338 -381 418 -81 39 -135
59 -135 50z"/>
<path d="M9740 19071 c0 -6 14 -61 31 -122 38 -135 36 -187 -7 -247 -35 -50
-118 -106 -189 -128 -51 -16 -54 -16 -98 5 -30 15 -88 67 -175 159 -138 146
-178 175 -300 216 -90 31 -342 63 -342 44 0 -4 25 -45 55 -92 64 -97 135 -233
135 -257 0 -8 -12 -22 -27 -30 -15 -8 -70 -49 -122 -91 -102 -83 -144 -108
-184 -108 -14 0 -67 28 -118 62 -110 72 -178 98 -253 98 -103 0 -154 -29 -356
-202 -24 -21 -41 -40 -39 -42 2 -3 72 2 155 10 183 18 209 14 238 -41 l20 -39
-23 -85 c-67 -247 -81 -306 -100 -418 -36 -212 -46 -417 -33 -638 27 -439 55
-555 290 -1195 106 -290 187 -536 247 -753 45 -162 125 -495 125 -522 0 -12
-8 -11 -45 5 -25 11 -210 81 -413 155 -506 188 -718 273 -920 370 -434 210
-660 394 -820 668 -38 64 -38 67 -28 118 9 45 19 60 74 113 36 33 84 89 109
124 36 50 69 79 165 144 162 110 220 165 260 246 33 66 33 69 33 207 0 119 -4
151 -23 215 -32 102 -93 222 -153 302 -51 68 -235 245 -245 235 -7 -7 13 -219
33 -351 17 -105 17 -109 -2 -122 -49 -36 -187 -71 -350 -89 -59 -7 -60 -7 -78
24 -30 52 -185 208 -269 271 -225 170 -425 248 -737 290 -176 23 -184 23 -176
10 3 -5 76 -66 163 -136 181 -146 222 -183 222 -200 0 -7 -42 -75 -92 -151
l-93 -139 -45 7 c-119 19 -361 7 -525 -26 -82 -17 -466 -117 -463 -121 2 -1
84 -17 183 -34 226 -41 275 -58 341 -124 83 -84 120 -210 111 -377 l-6 -95 30
-18 c40 -24 28 -36 -36 -36 -62 0 -328 -32 -455 -56 -159 -28 -630 -128 -626
-132 3 -2 103 -12 223 -23 257 -22 339 -34 434 -60 230 -64 340 -174 323 -323
-6 -49 -5 -52 26 -69 90 -53 234 -175 513 -435 238 -222 367 -325 457 -365 25
-11 89 -32 142 -47 l97 -26 118 -134 c148 -171 631 -655 828 -830 191 -170
489 -418 683 -569 493 -383 1157 -832 1488 -1008 101 -53 105 -54 151 -45 27
6 81 14 121 18 l73 7 35 -41 c131 -154 436 -287 848 -372 349 -71 604 -107
1451 -205 264 -30 545 -64 625 -76 505 -70 1005 -224 1422 -435 121 -62 381
-213 402 -234 7 -7 -37 -10 -129 -10 -253 0 -411 -27 -538 -91 -184 -93 -313
-255 -391 -489 -43 -130 -62 -222 -81 -393 -8 -72 -19 -146 -24 -163 -36 -126
-124 -174 -315 -174 -229 1 -398 55 -564 180 -98 73 -225 207 -272 286 -31 52
-35 66 -35 129 0 87 23 130 133 248 112 119 148 166 178 232 26 56 27 63 21
184 -9 202 -59 347 -160 458 -75 82 -198 133 -322 133 -40 0 -42 -2 -53 -39
-17 -53 -15 -91 8 -217 29 -157 18 -184 -72 -184 -87 1 -152 47 -383 270 -211
203 -284 238 -474 227 -72 -4 -121 -14 -195 -39 l-99 -34 182 -115 182 -114
-5 -40 c-9 -65 -25 -110 -46 -133 -27 -29 -103 -29 -236 -1 -139 29 -320 36
-404 15 -87 -22 -194 -75 -255 -128 -56 -48 -217 -219 -211 -225 2 -2 61 4
132 13 143 18 247 15 310 -11 50 -20 53 -31 47 -190 -5 -100 8 -207 31 -265 5
-13 -11 -15 -116 -12 -114 4 -125 2 -150 -18 -22 -16 -28 -30 -28 -58 0 -47 7
-56 53 -73 51 -18 107 -66 123 -105 8 -19 14 -54 14 -79 0 -160 214 -354 460
-417 l85 -22 55 -68 c73 -92 282 -295 400 -389 676 -539 1708 -960 2620 -1069
159 -19 402 -30 520 -23 l117 6 6 196 c10 322 45 510 130 681 61 126 169 231
297 293 79 38 238 93 246 84 1 -1 9 -58 18 -127 34 -250 79 -422 152 -578 62
-134 112 -197 285 -367 196 -192 342 -317 769 -657 559 -446 608 -496 655
-663 22 -78 32 -386 16 -510 -13 -109 -46 -180 -157 -339 -91 -129 -72 -143
-169 124 -74 202 -85 229 -122 278 -42 56 -218 131 -393 167 -194 41 -368 39
-491 -4 -63 -22 -272 -121 -267 -127 2 -2 76 -12 163 -24 151 -19 248 -35 288
-46 34 -10 17 -196 -28 -305 -13 -31 -27 -78 -31 -106 l-6 -50 -112 -6 c-292
-13 -526 -138 -650 -346 -26 -45 -46 -84 -43 -87 2 -3 58 0 124 5 252 22 430
-25 475 -126 28 -64 19 -108 -38 -186 -26 -34 -61 -92 -80 -128 -32 -64 -118
-299 -109 -299 2 0 50 26 107 58 93 52 108 57 163 57 108 0 210 -73 355 -256
76 -94 142 -139 206 -139 l32 0 -16 -57 c-12 -42 -16 -102 -17 -213 0 -151 1
-160 49 -360 27 -113 52 -211 55 -217 4 -7 19 56 35 140 48 261 73 319 153
359 52 25 71 26 413 17 145 -4 158 -3 196 18 54 29 94 77 94 113 0 52 21 134
46 177 18 30 44 54 92 82 72 43 274 133 385 172 80 28 76 23 187 223 206 370
349 725 385 951 17 109 59 463 80 675 42 436 76 1257 52 1272 -6 4 -28 8 -47
8 -63 0 -222 30 -299 56 -259 87 -400 257 -475 576 -25 102 -36 169 -76 463
-19 138 -58 334 -76 379 -4 10 40 -17 98 -62 121 -91 271 -169 403 -209 81
-24 106 -27 255 -27 129 -1 180 3 235 18 373 98 524 401 475 956 -30 331 -225
845 -572 1505 -237 451 -450 809 -871 1468 -293 456 -473 817 -561 1120 -74
255 -88 452 -50 684 l15 91 35 7 c122 22 342 123 504 230 413 272 781 719 882
1070 43 150 28 374 -38 575 -61 184 -186 380 -313 488 -59 51 -73 70 -123 172
-68 138 -131 224 -258 350 -143 142 -354 294 -476 342 -45 18 -214 36 -214 23
0 -5 60 -88 134 -185 73 -97 151 -212 172 -255 36 -72 39 -86 39 -161 0 -79
-2 -85 -57 -195 -70 -141 -171 -294 -368 -558 -84 -113 -179 -243 -210 -290
-263 -388 -444 -813 -496 -1164 -20 -134 -15 -391 10 -532 24 -133 72 -321
123 -479 64 -198 263 -734 312 -840 137 -294 634 -1157 1068 -1854 516 -827
773 -1391 777 -1702 2 -153 -30 -191 -167 -198 -96 -5 -204 14 -305 54 -224
90 -323 199 -642 703 -162 258 -210 327 -297 432 -112 137 -239 243 -349 292
-30 14 -49 33 -74 75 -171 289 -456 691 -715 1007 -354 432 -791 873 -1225
1235 -146 121 -393 310 -530 405 -47 32 -87 60 -89 61 -2 2 23 36 56 76 33 40
78 100 102 133 l43 60 -7 -90 c-3 -49 -8 -108 -11 -130 l-5 -40 71 75 c141
150 360 426 502 635 261 383 418 742 418 960 l0 40 133 22 c366 60 579 179
647 359 54 146 -4 326 -152 471 -56 55 -154 117 -330 209 l-108 56 33 22 c45
30 62 68 48 108 -18 51 -181 237 -441 501 -400 408 -709 648 -908 703 l-59 16
-43 -28 c-36 -24 -54 -29 -119 -31 -71 -2 -79 0 -126 31 -27 18 -93 71 -145
117 -230 205 -295 248 -391 256 l-59 6 -6 -32 c-9 -44 -87 -102 -184 -137
-101 -36 -225 -97 -282 -139 -123 -90 -142 -211 -71 -448 l26 -88 -22 -118
c-12 -65 -19 -124 -16 -132 3 -8 -4 -59 -15 -113 -11 -55 -19 -101 -17 -102 2
-2 30 31 62 73 33 42 70 82 82 90 16 11 115 126 138 161 3 5 181 -101 217
-129 75 -60 128 -173 142 -304 15 -134 -27 -234 -176 -414 -102 -123 -102
-123 -118 -100 -33 51 -155 199 -316 381 -228 258 -339 392 -434 524 -251 349
-347 639 -296 891 10 46 15 87 12 92 -10 15 -131 21 -212 11 -95 -13 -193 -57
-229 -104 -63 -83 -80 -336 -36 -545 75 -353 277 -742 557 -1072 71 -83 73
-87 55 -103 -44 -40 -113 -218 -134 -344 -9 -58 -15 -71 -27 -66 -112 43 -337
88 -532 105 -149 13 -451 7 -511 -11 -84 -25 -102 -89 -43 -145 l34 -32 -151
-12 c-146 -11 -337 -44 -441 -75 -39 -12 -53 -13 -64 -3 -8 6 -62 70 -119 142
-275 342 -460 696 -508 969 -24 138 -15 317 16 337 12 7 220 35 334 44 121 10
274 36 331 55 179 62 332 206 429 404 63 128 85 222 85 368 0 65 -3 118 -7
118 -4 0 -64 -58 -133 -129 -189 -194 -282 -244 -342 -183 -35 34 -31 162 11
367 18 88 35 188 38 221 13 134 -68 287 -242 459 -118 116 -205 191 -205 176z
m-696 -300 c33 -17 82 -63 150 -139 55 -62 117 -126 138 -141 l38 -28 -47 -43
c-106 -95 -216 -207 -240 -246 -24 -37 -35 -44 -111 -69 -180 -58 -385 -178
-559 -326 -62 -53 -187 -187 -237 -254 -14 -18 -15 -15 -9 35 14 137 56 348
98 495 47 162 53 220 29 294 -7 24 -7 24 37 -6 170 -116 251 -107 449 53 103
83 138 104 170 104 12 0 28 13 40 33 29 46 25 116 -9 205 -29 71 -29 73 -8 66
12 -3 44 -18 71 -33z m963 -200 c21 -42 27 -68 26 -111 -1 -66 -52 -329 -67
-349 -19 -25 -61 -33 -153 -32 -118 2 -204 -18 -318 -74 -115 -56 -206 -125
-327 -247 -216 -218 -424 -509 -803 -1123 l-99 -159 -18 59 c-32 107 -57 247
-73 404 -23 234 -22 250 25 339 124 238 399 495 664 621 47 22 132 55 189 73
99 30 105 34 127 73 38 67 78 111 184 207 55 51 112 107 126 125 17 22 34 32
52 33 36 0 144 40 203 74 66 39 118 88 156 148 l33 51 22 -28 c12 -16 35 -53
51 -84z m3210 -618 c26 -20 98 -80 158 -133 145 -128 199 -168 263 -198 48
-22 64 -24 150 -20 74 3 108 10 144 27 l46 22 56 -26 c124 -59 288 -182 513
-387 212 -192 599 -598 571 -598 -8 0 -38 7 -66 15 -52 16 -53 16 -105 -12
-50 -27 -52 -30 -51 -71 0 -26 8 -50 20 -63 29 -34 134 -98 307 -190 l158 -84
-233 -5 c-232 -5 -233 -5 -291 -34 -110 -53 -149 -105 -280 -367 -157 -316
-367 -650 -541 -861 -69 -83 -166 -153 -259 -186 -102 -36 -244 -35 -372 3
-280 83 -549 267 -1043 712 -198 179 -274 242 -334 276 -21 11 -38 25 -38 31
0 6 -13 38 -29 70 l-29 60 19 74 c22 85 64 184 88 206 14 13 27 5 126 -80 191
-165 269 -214 390 -245 183 -48 272 -8 368 168 21 37 79 118 129 178 146 176
189 256 210 389 21 135 -20 314 -97 430 -49 75 -112 128 -232 197 -84 48 -104
66 -142 119 l-44 63 -25 -43 -25 -42 -18 47 c-31 80 -49 169 -49 234 0 57 3
66 29 90 39 37 131 85 240 125 99 37 158 69 211 115 19 17 40 30 47 31 6 0 33
-16 60 -37z m-3228 -162 c35 -68 127 -121 211 -121 46 0 113 23 163 56 20 13
37 21 37 18 0 -21 -71 -125 -122 -179 -134 -144 -194 -164 -632 -210 -128 -14
-217 -28 -312 -50 -18 -4 -26 -21 -44 -87 -31 -113 -38 -281 -16 -408 54 -307
251 -684 553 -1057 46 -57 77 -103 70 -103 -23 0 -261 -124 -362 -190 -55 -36
-167 -119 -250 -185 l-150 -120 220 -11 c121 -7 222 -12 225 -13 3 -1 -32 -21
-77 -45 -115 -62 -165 -99 -256 -185 -88 -84 -180 -216 -223 -319 -15 -37 -28
-68 -29 -70 -1 -1 -36 12 -78 30 -71 29 -76 33 -82 67 -21 117 -94 429 -135
580 -65 238 -142 470 -266 812 -57 158 -104 289 -104 293 0 4 22 39 48 79 27
40 100 155 162 257 598 974 942 1323 1280 1296 41 -4 89 -3 105 2 l30 9 7 -53
c4 -29 16 -71 27 -93z m7360 -457 c179 -170 284 -336 318 -499 26 -129 -1
-357 -68 -565 -41 -129 -132 -313 -218 -440 -48 -71 -66 -107 -58 -111 29 -16
128 -31 162 -25 54 11 125 82 173 174 68 132 147 384 202 647 30 141 26 138
71 67 121 -190 191 -484 156 -653 -70 -344 -425 -785 -855 -1063 -152 -99
-367 -187 -514 -211 -34 -5 -39 -10 -49 -48 -120 -442 -49 -871 240 -1447 111
-220 200 -371 433 -735 616 -964 1006 -1693 1223 -2290 108 -300 150 -563 125
-805 -36 -360 -198 -506 -560 -504 -117 1 -147 4 -225 28 -168 51 -333 154
-478 300 -86 85 -198 227 -253 319 -47 78 -657 958 -661 953 -2 -2 110 -223
249 -492 385 -748 382 -740 431 -892 55 -168 87 -317 122 -580 68 -510 152
-722 356 -897 111 -94 279 -168 452 -196 l77 -13 0 -115 c0 -273 -34 -809 -75
-1171 -63 -559 -64 -567 -127 -748 -67 -196 -157 -391 -295 -642 l-86 -155
-111 -44 c-177 -69 -349 -157 -403 -205 -63 -57 -100 -125 -122 -228 -16 -76
-19 -83 -47 -90 -17 -5 -94 -4 -185 3 -207 16 -310 9 -385 -25 -32 -15 -67
-35 -78 -44 -18 -17 -18 -15 -11 53 9 91 46 207 86 270 73 118 217 234 366
295 82 33 329 166 339 181 6 11 -120 11 -273 0 -104 -8 -117 -11 -205 -54
-112 -55 -201 -121 -328 -243 -52 -50 -105 -95 -118 -99 -26 -8 -57 21 -156
144 -111 138 -258 236 -371 248 -48 5 -53 8 -45 23 22 40 117 134 164 161 48
27 58 29 156 29 126 0 317 -19 619 -59 124 -17 226 -29 228 -27 6 6 -452 209
-527 234 -101 33 -293 42 -393 18 -38 -9 -83 -16 -102 -16 -29 0 -35 4 -45 35
-16 48 -88 126 -148 158 -56 30 -187 67 -239 67 -18 0 -33 4 -33 10 0 14 137
76 215 96 54 14 107 18 230 18 182 -1 285 -18 490 -85 257 -82 361 -89 512
-32 35 13 48 26 74 72 18 31 78 124 134 206 164 241 184 291 194 509 14 266
-12 470 -76 603 -48 101 -223 264 -641 597 -573 457 -881 734 -970 874 -150
234 -211 551 -232 1197 -23 711 -35 872 -80 1061 -11 46 -31 110 -44 143 -24
55 -167 304 -189 326 -13 14 1 -350 18 -450 8 -43 12 -81 10 -83 -2 -2 -28 18
-57 45 -552 513 -1288 874 -2113 1037 -204 40 -282 51 -930 126 -335 39 -707
84 -825 101 -567 79 -921 164 -1145 277 -136 68 -136 64 6 83 68 9 291 38 494
64 204 27 374 51 378 55 13 12 -658 35 -988 35 -190 -1 -340 -5 -388 -13 -73
-11 -81 -11 -120 9 -93 48 -365 215 -580 358 -966 640 -1836 1382 -2425 2067
-100 117 -117 132 -151 138 -21 3 -78 17 -127 31 -136 39 -215 97 -510 372
-215 199 -299 274 -399 353 l-80 63 -12 69 c-20 120 -96 220 -223 292 l-55 31
60 8 c212 27 495 24 567 -6 42 -18 41 -19 84 62 19 34 25 55 18 58 -6 2 -83
44 -170 92 l-159 88 -6 104 c-10 175 -53 292 -140 384 -45 48 -49 56 -33 62
33 13 345 9 404 -5 54 -12 57 -15 134 -115 177 -231 203 -296 241 -603 14
-114 27 -210 30 -212 4 -5 11 20 65 238 47 192 46 203 -20 371 -61 154 -110
239 -254 443 -6 9 11 42 51 102 33 49 70 108 82 131 23 46 28 121 10 155 -10
18 -8 19 13 13 77 -24 230 -120 341 -213 63 -53 145 -143 199 -218 4 -6 0 -48
-8 -95 -23 -120 -15 -413 15 -563 74 -364 242 -649 514 -869 136 -111 277
-197 512 -312 244 -120 380 -175 905 -370 542 -201 683 -258 960 -387 119 -56
373 -200 505 -286 126 -83 271 -222 341 -329 167 -251 170 -533 7 -697 -85
-86 -197 -128 -376 -142 -48 -4 -86 -10 -85 -14 2 -4 38 -40 82 -80 93 -86
173 -126 326 -164 187 -45 484 -75 755 -76 l130 0 -95 -90 -95 -90 30 -26 c70
-61 195 -90 425 -101 454 -20 944 112 1313 353 54 35 100 64 103 64 2 0 -3
-14 -11 -31 -9 -17 -14 -33 -12 -35 12 -13 150 -16 193 -5 215 54 588 337
1029 780 93 94 174 171 178 171 27 0 416 -290 634 -472 230 -192 344 -297 604
-557 352 -353 563 -595 840 -964 145 -194 344 -486 446 -657 60 -99 79 -118
153 -155 127 -63 252 -181 382 -362 31 -43 120 -178 197 -301 311 -494 423
-624 624 -725 199 -100 424 -134 581 -90 124 35 196 152 196 319 0 333 -272
946 -780 1759 -270 431 -629 1036 -841 1417 -191 342 -270 513 -392 843 -215
580 -280 827 -294 1116 -14 285 66 598 244 954 120 241 211 382 452 705 273
364 410 596 448 754 16 65 16 75 1 148 -9 43 -28 103 -42 133 -14 30 -21 55
-16 55 4 0 54 -43 109 -96z m-10427 -378 c21 -80 24 -209 6 -270 -17 -57 -78
-114 -240 -224 -113 -77 -143 -103 -169 -145 -30 -49 -135 -167 -149 -167 -12
0 -59 171 -70 253 -18 137 -7 383 19 425 4 6 65 20 136 31 208 32 308 71 374
146 22 26 31 46 32 73 l1 37 20 -45 c12 -25 30 -76 40 -114z m8730 -927 c42
-46 78 -132 78 -187 -1 -126 -138 -230 -382 -292 -112 -28 -324 -60 -399 -60
-45 0 -44 1 -28 -100 33 -198 -97 -531 -363 -929 -63 -94 -270 -372 -274 -368
-2 1 6 171 16 377 11 206 19 393 19 415 l-1 40 -13 -40 c-8 -22 -52 -176 -99
-342 -53 -189 -100 -334 -125 -388 -93 -199 -227 -368 -538 -681 -354 -356
-614 -575 -826 -694 l-58 -32 27 58 c126 282 254 577 251 580 -2 2 -82 -87
-178 -198 -96 -111 -208 -236 -249 -276 -288 -286 -702 -475 -1160 -532 -94
-11 -423 -13 -484 -2 l-38 7 151 144 c83 78 151 146 151 150 0 3 -73 2 -162
-2 -182 -9 -542 -2 -718 13 -167 15 -400 55 -400 69 0 3 28 22 61 41 180 102
290 321 275 545 -25 400 -304 714 -908 1025 l-147 75 28 60 c109 242 265 390
524 497 106 44 137 73 137 128 0 36 -6 48 -38 80 -38 38 -90 59 -187 75 l-39
7 69 45 c39 24 120 70 180 100 300 151 568 215 910 214 196 0 246 8 270 42 29
42 11 118 -37 151 -21 15 -18 16 57 16 281 0 585 -56 800 -146 132 -56 227
-125 493 -362 131 -117 293 -256 358 -308 609 -487 1078 -571 1419 -252 84 78
186 213 339 445 130 198 216 350 323 570 64 131 93 180 124 208 75 67 68 66
429 60 l325 -5 37 -41z m-4662 -4952 c51 -31 355 -330 354 -347 -1 -8 -24 -64
-52 -125 -144 -316 -192 -597 -133 -785 45 -145 115 -269 316 -555 233 -332
314 -509 340 -739 l7 -58 -59 33 c-194 109 -402 249 -563 378 -119 95 -339
314 -409 406 l-52 70 -87 18 c-211 43 -391 183 -392 307 -1 40 -9 72 -35 133
-7 18 -2 19 95 15 l102 -3 13 42 c28 92 28 88 -16 117 -71 48 -84 90 -85 296
0 137 -4 186 -18 227 l-17 51 -104 34 -104 35 52 19 c75 28 254 25 407 -5 157
-32 263 -27 322 15 72 51 117 158 133 311 l7 72 -51 31 c-28 18 -51 34 -51 37
0 8 44 -8 80 -30z m959 -83 c81 -70 141 -243 141 -408 0 -95 -16 -123 -153
-273 -79 -86 -118 -138 -145 -192 -35 -71 -37 -80 -37 -170 0 -86 3 -102 29
-151 85 -164 263 -344 447 -453 158 -93 274 -124 499 -133 215 -9 329 24 417
119 73 80 95 143 118 352 56 495 222 742 545 812 72 15 131 18 381 18 l296 -1
104 -86 c57 -48 127 -107 154 -132 l50 -45 -35 9 c-83 22 -292 41 -512 47
l-238 6 0 -40 c0 -72 15 -96 108 -165 225 -168 755 -473 873 -503 l26 -6 7
-227 c4 -125 9 -241 12 -259 5 -29 3 -32 -28 -38 -351 -72 -597 -285 -702
-608 -47 -143 -86 -411 -86 -591 l0 -59 -202 6 c-112 4 -252 13 -313 22 -536
75 -1070 234 -1585 473 l-145 67 -2 60 c-8 187 -49 347 -135 522 -47 98 -112
200 -329 518 -151 221 -198 317 -219 448 -23 144 37 392 156 648 l36 76 49
-18 c55 -21 144 -25 202 -8 43 11 101 59 122 98 24 47 27 113 11 209 -9 51
-16 96 -16 101 0 17 56 -9 99 -45z m4180 -4901 c52 -13 127 -38 168 -54 88
-37 91 -41 178 -284 32 -88 73 -191 92 -229 19 -37 31 -71 28 -75 -4 -3 -52
-6 -108 -5 -89 1 -117 6 -217 38 -109 35 -270 77 -352 91 -47 7 -49 29 -12
118 46 109 69 319 45 405 l-10 33 47 -7 c26 -3 89 -17 141 -31z"/>
<path d="M13810 17411 c0 -4 16 -22 35 -41 20 -19 40 -51 47 -71 10 -34 7 -44
-31 -126 -87 -190 -71 -256 84 -335 127 -65 342 -128 438 -128 55 0 56 2 29
106 -66 245 -215 431 -437 542 -67 33 -165 65 -165 53z"/>
</g>
</svg>
