<svg xmlns="http://www.w3.org/2000/svg" viewBox="0 0 100 100"><title>github_icon</title><g id="Footer"><path d="M50,1.61A49.62,49.62,0,0,0,34.31,98.3c2.48.43,3.41-1.06,3.41-2.36s-.06-5.09-.06-9.24C25.19,89,22,83.66,21,80.87c-.56-1.43-3-5.83-5.09-7-1.74-.93-4.22-3.22-.06-3.29,3.91-.06,6.7,3.6,7.63,5.09,4.46,7.5,11.59,5.39,14.45,4.09a10.39,10.39,0,0,1,3.16-6.63c-11-1.24-22.58-5.52-22.58-24.5a19.3,19.3,0,0,1,5.09-13.33c-.5-1.25-2.23-6.33.5-13.15,0,0,4.15-1.3,13.64,5.08a46.91,46.91,0,0,1,24.81,0c9.49-6.45,13.64-5.08,13.64-5.08,2.73,6.82,1,11.9.5,13.15a19.19,19.19,0,0,1,5.08,13.33c0,19-11.59,23.26-22.63,24.5,1.8,1.55,3.35,4.52,3.35,9.18,0,6.63-.07,12-.07,13.64,0,1.3.93,2.85,3.41,2.36A49.64,49.64,0,0,0,50,1.61Z"/></g></svg>