<svg xmlns="http://www.w3.org/2000/svg" viewBox="0 0 500 500"><defs><style>.cls-1{fill:#16a74e;}.cls-2{fill:#080805;}.cls-3{fill:#fdd530;}.cls-4{fill:#e8423f;}</style></defs><title>Zeichenfläche 1</title><g id="Ebene_2" data-name="Ebene 2"><polygon class="cls-1" points="0 0 500 500 0 500 0 0"/></g><g id="Template"><path class="cls-2" d="M271.91,371.07c2,2.9,3.74,5.63,5.61,8.29a119.65,119.65,0,0,0,14.86,18.06c2.74,2.63,5.58,5.14,9.38,6.14A1.86,1.86,0,0,1,303,404.8c1.93,4.51,5.88,6.25,10.19,7.55a67,67,0,0,0,8.38,1.94c1.2.2,1.57.65,1.6,1.88.13,6-1.78,11.4-4.35,16.66-3.87,7.93-9.12,14.94-14.49,21.88-4.28,5.55-9.17,10.62-12.95,16.55a6.46,6.46,0,0,1-2.8,2c-4.42,2.29-9,4.22-13.35,6.7-2.41,1.38-4.65,2.84-5.72,5.61-.6,1.57-2.12,1.91-3.64,2a43.51,43.51,0,0,1-8.22-.51c-.61-.08-1.21-.16-1.82-.21-3.11-.25-3.76.14-5,3-.45,1.05-.88,2.11-1.35,3.24a5.79,5.79,0,0,1-2.67-5.15,32.18,32.18,0,0,1,.41-7.14c.22-1.08,0-1.58-1.1-1.77a2.52,2.52,0,0,1-1.17-.5c-2.2-2-4.2-.92-6.28.27-2.66,1.54-5.39,3-8.33,4.57,1.4-5,2-10,4.82-14.16,2.2-3.22,1.53-5.27-2.14-6.9-3.24-1.44-6.69-1.71-10.42-1.88,2.57-5.78,5.64-10.84,11.54-13.46,2.25-1,4.69-.84,7.07-.84,2.75,0,4.42-1.4,5.46-3.82.53-1.22.5-2-1.09-2.34-4.1-.94-8.16-2.05-12.46-3.15,6.46-4.4,13.13-5.47,20.34-3.31a6.92,6.92,0,0,1,4.25,4c2.24,4.54,3.85,9.33,5.78,14,1.16,2.8,2.37,3.28,5.14,2a11.48,11.48,0,0,0,5.16-5.26,33.15,33.15,0,0,0,3.88-15.64,7.21,7.21,0,0,0-3.34-6.51,62,62,0,0,0-12.28-6c-5.71-2.27-11.47-4.42-17.09-6.93a33.3,33.3,0,0,1-16.52-15.1c-.59-1.13-1.16-1.25-2.27-.82-4.68,1.78-9.27,3.62-13.17,6.93a12.38,12.38,0,0,0-3.4,5.48,68.27,68.27,0,0,0-3.69,16,4.69,4.69,0,0,0,.94,3.59q3.19,4.22,6.18,8.6c1.63,2.39,1.33,3.59-1.19,5-7.06,4-14.76,6.34-22.58,8.29-14.48,3.6-29.13,5-44,2.92-13.56-1.9-25.84-6.82-36.43-15.63a4.55,4.55,0,0,0-2.62-1.1,35.51,35.51,0,0,1-5.38-1.05,9.16,9.16,0,0,1-6.68-6.19,23.92,23.92,0,0,0-1.31-2.81,4,4,0,0,0-3.06-2.07c-2.37-.39-4.8-.4-7.26-1.13,4.19-1,8.1-2.73,13-2.48-2.77-2.88-2.86-6-2.85-9.12,0-2-.73-2.68-2.78-2.88s-4.09.56-6.08,1.12l-2.19.65c3.2-6.27,7.9-10,15-10,2.14,0,4.28-.09,6.42-.14,1.71,0,2.35-1.18,2.49-2.62s.48-3-1.46-3.65c-2.31-.8-4.58-1.68-6.84-2.51,3.92-4.16,10.11-6.18,15.74-1.71,1.91,1.52,3.76,3.12,5.71,4.57,1.2.89,2.5,2,4.14,1,1.32-.81,1.68-3,.9-4.85-.33-.78-.84-1.48-1.23-2.23-.51-1-1-2-.22-3.07a3.17,3.17,0,0,1,3.1-1.19,11.55,11.55,0,0,1,8.66,6.12c2.85,5.1,3.81,10.3-.17,15.41a17.71,17.71,0,0,0-1.39,2.35c-2,3.61-1.22,6.93,2.16,9.28,3.85,2.66,8.28,3.8,12.79,4.61a58.73,58.73,0,0,0,18.24.38,3.22,3.22,0,0,0,3.05-2.82c.82-3.54.1-7-.94-10.27a38.54,38.54,0,0,0-4.51-9.75,10.82,10.82,0,0,1-1.8-6.05,22.14,22.14,0,0,1,8.3-17.41,63.16,63.16,0,0,1,18-11c3.9-1.52,8.11-2.22,12.17-3.33.46-.12,1.27.09,1.26-.71s-.73-.71-1.23-.89c-10.6-3.95-21.61-6-32.83-7.17a460.89,460.89,0,0,1-53.53-8.44,119.94,119.94,0,0,1-21-6.31c-5.12-2.2-8.72-6.19-12.54-9.91-6.37-6.2-12.32-12.78-18.34-19.31a2.44,2.44,0,0,0-2-.88c-3.49,0-7,0-10.47,0a3.11,3.11,0,0,1-3-1.58c-4.13-6.17-6.43-13.09-8.34-20.15-4.18-15.42-6.31-31.21-8.35-47-1.17-9.08-2-18.2-3.47-27.25a3.37,3.37,0,0,0-1.73-2.71c-3-1.75-4.24-4.8-5.24-7.9-1.91-5.91-2.5-12.06-3.15-18.2-.52-4.91-.82-9.86-1.69-14.73-.28-1.56-.39-3.3-2.75-3.54,6.57-6.89,5.43-14.74,3.41-23,1.69,1.08,3.18,2,4.63,3s3,2,4.5,3.12c1.08.79,2.16,1.59,3.17,2.47.64.56.83.42,1.32-.24a13,13,0,0,0,1.72-13c-1-2.84-1.95-5.73-3.09-9.08,5.12,5.34,9.42,10.65,12.56,16.82.63,1.24,1.26,1.59,2.52,1a36.43,36.43,0,0,1,3.9-1.56c1.37-.44,1.53-1.3,1.28-2.55A26.61,26.61,0,0,0,45,136.16a55.42,55.42,0,0,1-3.08-7.11c1.11,1.2,2.21,2.41,3.33,3.6,5.36,5.68,9.81,11.95,12.3,19.44a22.36,22.36,0,0,1,1.28,7.19,1.88,1.88,0,0,0,1.1,2,5.32,5.32,0,0,1,1,.77c2.47,1.9,3,1.79,4.44-1.1,1-2.13,1.94-4.32,2.93-6.56,4.32,8.51,2,16.16-2.65,23.54a3.15,3.15,0,0,1-2.49,1.4c-4.4.29-8.55,1.87-12.9,2.42-.81.1-1,.54-1.13,1.16-.72,2.58-.15,5.13.34,7.62,3.22,16.23,8.13,31.86,16.49,46.26a37.77,37.77,0,0,0,4,5.7c.61-2.83.39-5.45.55-8a391,391,0,0,1,5.24-44.37,3.13,3.13,0,0,0-.16-2.13c-3.77-7.55-3.33-15.24-.64-23a2.88,2.88,0,0,0-.4-3.11c-1.9-2.54-1.65-5.52-1-8.45a73.78,73.78,0,0,1,3.22-9.9,17.65,17.65,0,0,0,.56-1.92c.56-2.3-.23-3.35-2.64-3.42a21,21,0,0,0-2.37.15c-.73.06-1.46.15-2.33.24a14.42,14.42,0,0,1,3-3.93c1.94-1.79,4.5-1.91,7.1-.31a35.8,35.8,0,0,1,3.39,2.47c.9.72,1.51.68,2.23-.3,1.5-2.05,2.76-4.31,4.81-5.93.64-.49.21-1.16,0-1.7-.48-1.44-1-2.86-1.58-4.27S87.71,122,87,120.32c5.84,1.6,11.55,2.71,14.2,9,1.17,2.78,2.72,3.36,5.55,2.83,1.37-.26,1.92-.88,1.47-2.29-.93-3-1.83-5.91-2.85-9.22,4.71,4.26,9.27,8.15,11.35,14.06a17.16,17.16,0,0,1,.78,5.6,54.2,54.2,0,0,0,.37,8.25,3.25,3.25,0,0,0,2.27,2.8c1.83.66,2.67.32,3.34-1.48.8-2.16,1.56-4.34,2.39-6.68a15.35,15.35,0,0,1,5.41,8c.44,1.81-1.22,11.57-2.29,13.07a22,22,0,0,1-7.76,6.27,106.57,106.57,0,0,1-13.61,6.15,2.07,2.07,0,0,0-1.55,1.93c-1.05,7.46-.56,14.89.38,22.3a155.43,155.43,0,0,0,7.19,31.35,3.18,3.18,0,0,0,2.32,2.26,61.53,61.53,0,0,1,11,4.74c.83.45,1.25.66,1.48-.66a20.87,20.87,0,0,1,2.62-7.2,2,2,0,0,0-.06-2.59,57.2,57.2,0,0,1-9.45-26.25,25.66,25.66,0,0,1,1-10c1.55-5,4.32-6.48,9.54-5.15,1,.27,2.08.68,3.25,1.08-4.33,7.08-2.19,14,.48,20.77a78.66,78.66,0,0,0,5.78,11.35c.19.33.23.93.85.76.42-.11.41-.55.52-.88q1.77-5.1,3.52-10.2a2,2,0,0,0-.22-1.88,11.41,11.41,0,0,1-1.31-8c.48-2.74,2.32-4.33,4.62-5.53,1.13-.6,2.35-1,3.48-1.64,1.38-.75,3-1.4,2.29-3.58,2.33-.22,4,.92,5.69,2.19,2.32,1.79,4.64,3.58,6.88,5.46a2.28,2.28,0,0,0,3.15.09c2.34-1.8,4.54-1.24,6.75.21a57.44,57.44,0,0,1,8.43,7A214.32,214.32,0,0,1,205,225.51c.72.92,1.68,1.8.63,3.22-.52.7.47.79.87,1a44.77,44.77,0,0,1,8.15,4.79c3.72,2.74,5,11.91,2.13,14.71-2.32,2.27-5.18,3.61-8,5a4.6,4.6,0,0,1-.52.19c-2,.65-3.1,1.4-3.11,4.08,0,5.2-2.9,9.58-5.56,13.89-3.4,5.5-7.56,10.45-11.5,15.57a5.87,5.87,0,0,0-1.28,2.38,1.36,1.36,0,0,1-1.46,1.15A1.45,1.45,0,0,1,184,290c-.06-.61,0-1.23-.09-1.83-.06-.43.35-1.11-.35-1.24s-.69.57-1,1c-1.36,2-2.67,4.06-4.14,6-.95,1.24-.78,1.89.53,2.73,7.83,5,16,9.5,23.92,14.33a238.4,238.4,0,0,1,28.52,19.68,65,65,0,0,1,10,10,3.23,3.23,0,0,0,1.91,1.21,116.3,116.3,0,0,1,26.47,10c6.63,3.58,12.77,8,19.16,12,12.1,7.57,24.09,15.32,36.56,22.28a25.22,25.22,0,0,0,3.12,1.56,3.87,3.87,0,0,0,4-.5c1.27-1,1-2.23.73-3.5-1.8-7.13-6.1-12.47-11.87-16.84-12.61-9.58-26.34-17.28-40.57-24.14-5.21-2.5-10.65-4.47-16-6.6a56.82,56.82,0,0,1-27.66-23.24,182.44,182.44,0,0,1-13.71-25.69c-2.35-5.5-6.85-7.6-12.12-8.85-1.72-.4-3.47-.69-5.32-1,9.55-4.66,19-4.84,28.53-.38a8.73,8.73,0,0,0,3.78.42,31.23,31.23,0,0,1,18.46,6.05c2.56,1.91,3.81,4.71,5.27,7.35,4.18,7.59,7.41,15.53,8.18,24.28a21.49,21.49,0,0,1,0,4.39,1.86,1.86,0,0,0,1.09,2.2,176.41,176.41,0,0,1,22,14c2,1.46,4.6,2.15,6.92,3.19a129,129,0,0,1,37.71,25c4.15,4,8,8.39,10.57,13.7,3.56,7.4,2.57,14.91-2.69,20.36a18.29,18.29,0,0,1-21.06,4.11c-11.15-5-21.45-11.42-31.81-17.8-6.47-4-12.84-8.11-19.09-12.45A2.51,2.51,0,0,0,271.91,371.07ZM200.68,225.63a.29.29,0,0,0,.47,0l-.28-.2a12,12,0,0,0-.79-1.21,225.74,225.74,0,0,0-16-17.41,50.11,50.11,0,0,0-8.35-6.88,2.18,2.18,0,0,0-2.69-.08c-2.72,2-5.24,1.43-7.67-.61-2.11-1.77-4.28-3.47-6.45-5.17-.37-.29-.86-1-1.39-.33-1.93,2.35-4.92,2.86-7.34,4.37a4.36,4.36,0,0,0-2.19,3.58,8.56,8.56,0,0,0,1.85,6.35c.19.24.39.67.57.67,3.31-.05,5.3,2.31,7.4,4.24,4.48,4.13,5.1,7.86,2.45,13.35-2.79,5.78-7,10.42-11.7,14.71-2.8,2.59-4.26,2.51-6.95-.27a62.15,62.15,0,0,1-5.45-7.15,4.92,4.92,0,0,0-1.7-1.89,18,18,0,0,0-1,1.69c-.48,1.11-.82,2.3-1.36,3.39-.91,1.88-.45,3.49.63,5.13a131.41,131.41,0,0,0,19.18,23.34c7.29,7,15.91,8.15,24,2.69,8.67-5.84,15.78-13.31,19.56-23.34a9,9,0,0,1,8.2-6.24,23.19,23.19,0,0,1,5.13.13c1.72.23,3.46.35,5.47.54a8.39,8.39,0,0,0-2.58-2.88,36.56,36.56,0,0,0-8.58-4.49c-2.15-.87-4.32-1.69-6.45-2.62a1.85,1.85,0,0,1-1.3-2.17,2.06,2.06,0,0,1,2.19-1.6A29.45,29.45,0,0,1,200.68,225.63ZM157.53,299l0,0a3.54,3.54,0,0,1-.53,1.71c-1.16,3-2.35,6-3.52,8.94l-.26.2c.15.17.31.12.46,0a32.68,32.68,0,0,0,7-3.53c10.37-6.61,17.62-15.92,23-26.81,1.64-3.31,3.21-6.65,4.82-10l.26.1q-.81,6.9-1.61,13.82l.49.15c2.3-3.07,4.68-6.08,6.89-9.21a48.46,48.46,0,0,0,6.87-12.49c.7-2.12,1.2-4.29.23-6.44-.55-1.24-.13-1.64,1-2.07a58,58,0,0,0,9.48-4.36,7.7,7.7,0,0,0,2.74-2.39c1-1.61.44-4.07-.91-4.18-2.68-.23-5.36-.47-8-.6-4.38-.21-5.93.84-7.41,4.91a21.79,21.79,0,0,1-3.15,6.57c-4.13,5.07-8,10.37-13.13,14.55-4.48,3.66-9.38,6.43-15.28,6.84-6.79.47-12.41-2.31-17.21-6.81a133.82,133.82,0,0,1-18.29-21.72,5.35,5.35,0,0,0-1.42-1.65,56.66,56.66,0,0,0-19-8,17.25,17.25,0,0,0-6.32-.26l6.52,5.06c-4.71-.79-8.79-2.3-13.11-1.9a41.78,41.78,0,0,0-12.52,2.92c1.82.95,3.59,1.39,4.77,2.8a2.9,2.9,0,0,1,.3,3.39c-.59,1.25-1.55.71-2.38.59a16,16,0,0,0-8.45,1,4.27,4.27,0,0,0-2.94,4.35,19.64,19.64,0,0,0,3.91,12.31c1.7,2.2,3.11,4.66,3.15,7.47.16,11-2.59,20.53-13,26.15,11.43,10.55,25.42,13.79,40.67,13.35l-.07.57-6.74,5.82a30.49,30.49,0,0,0,6.75.85,52,52,0,0,0,27.59-7.23c6-3.45,11.09-8,16-12.84C155.8,300.21,156.32,299.15,157.53,299ZM148,312.45c-15.34,10.7-31.69,15.19-50.49,9.41l5.41-4.75c-14.57-2-14.57-2-28.66-9.71-.33-.18-.62-.41-1-.31l-7.85,2c.32.42.45.62.61.79C71.64,316,77.48,321.9,83.19,328c5.52,5.88,12.18,9.39,19.86,11.48,21.57,5.86,43.6,8.93,65.75,11.33A131.17,131.17,0,0,1,204,359.15c2.47,1,4.91,2,7.49,3.09-1.12-4.36-4.39-6.7-7.81-9.07,4.73-.79,7.87.61,9.8,4.95,1.8,4.06,3.54,8.16,5.68,12.08A76,76,0,0,1,224,382c1.65,4.84,4.29,9.31,6.68,13.85a31.68,31.68,0,0,0,15.81,14.67c6.5,2.86,13.18,5.22,19.72,7.95A44.63,44.63,0,0,1,276.68,424a9.66,9.66,0,0,1,4.05,7.84,37.29,37.29,0,0,1-1.83,12.28,25.53,25.53,0,0,1-4.35,8.43c-3.5,4.29-7,5.36-12.16,3.78a1.1,1.1,0,0,0-.54,0c-2.23.56-4.23-.31-6.22-1.05-4.07-1.5-8.09-3.14-12.16-4.62a15.12,15.12,0,0,0-6.05-1.26c-3.67.21-8.65,4.55-9.7,8.27l.72.12c3.94.79,7.82,1.74,10.26,5.37.52.76.9.3,1.35,0,1.64-.95,3.22-2,4.92-2.84,3.5-1.67,8.32-.36,10.77,2.82-1.79.41-3.59.78-5.37,1.24a32.82,32.82,0,0,0-9.56,3.6c-3.28,2.05-4.72,5.18-5.58,9,1.84-.89,3.35-1.69,4.91-2.36a4.53,4.53,0,0,1,4.87.35c2.16,1.68,4.25,1.4,6.44,0,1.75-1.12,3.65-2,5.39-3.13,1.13-.72,1.59-.41,2.2.67s.79,1.73-.55,2.38c-1.71.81-3.3,1.86-5,2.77-3.24,1.79-4,3.32-3.26,7.27,1.69-1.51,3.63-1.55,5.71-1.3,2.91.36,5.84.58,8.77.79.75.05,1.72.21,2.11-.71,1.36-3.19,4-5,6.91-6.55,4.32-2.28,8.72-4.42,13.08-6.63a4.83,4.83,0,0,0,2.11-1.41c4.29-6.36,9.56-11.95,14.2-18,5.17-6.77,10.17-13.64,13.69-21.45a34.24,34.24,0,0,0,3.1-10.89c.11-1.14-.06-1.75-1.42-2a41.53,41.53,0,0,1-5.87-1.44c-4.85-1.51-9.55-3.28-11.89-8.38a1.35,1.35,0,0,0-.77-.73c-5.41-2-9.34-6-13.11-10.1-8.1-8.85-14.54-18.9-21.12-28.87-1.93-2.92-2.2-5.91-2.21-9.23,2,3.92,5.45,6.35,8.89,8.77,12,8.43,24.46,16.25,37.16,23.62a144.08,144.08,0,0,0,16.59,8.62,15.08,15.08,0,0,0,14.73-1.22c6.64-4.28,8.43-12.2,4.52-19.74a42.11,42.11,0,0,0-7-9.41c-12.51-13.22-27.67-22.45-44.38-29.29a14,14,0,0,1-3.19-1.76,137.79,137.79,0,0,0-19.55-12.66c-1.24-.64-2.38-1.5-3.59-2.19a1.54,1.54,0,0,1-.84-1.79,28.8,28.8,0,0,0-.09-8.24c-1.33-8.61-4.86-16.36-9.27-23.77-3.23-5.43-8.7-6.82-14.47-8.31a5.49,5.49,0,0,0,1.79,2,51.9,51.9,0,0,1,7.4,7.64,7.4,7.4,0,0,1,1.91,4.66,3.42,3.42,0,0,1-2.47,3.12c-.94.34-1.18-1.12-1.59-1.83-3.55-6-7.87-11.23-13.82-15A27.44,27.44,0,0,0,218,277.12c4.94,2,7.15,6.2,9.17,10.69a215.2,215.2,0,0,0,11.37,21.36c7.35,12.35,17.8,20.56,31.28,25.57a215,215,0,0,1,53.44,29.56c6.4,4.76,11,10.71,13.07,18.51.66,2.54.5,4.91-1.71,6.67a6.73,6.73,0,0,1-7.41.95c-1.33-.6-2.63-1.3-3.9-2-15.75-9-31.05-18.64-46.19-28.57a110.74,110.74,0,0,0-33.6-14.67,8.13,8.13,0,0,1-5.19-3.31,28.16,28.16,0,0,0-3.83-4.2c-7.62-7.45-16.31-13.51-25.31-19.12-10.69-6.66-21.54-13.06-32.27-19.67-1.17-.72-1.66-.59-2.51.35a52.66,52.66,0,0,1-19.56,13.9,51.38,51.38,0,0,1-8.32,2.51ZM19.64,149.53c0,1,0,1.65,0,2.3.1,3.14.11,6.41-1.4,9.16-1.63,2.95-1.46,5.62-.83,8.76C18.86,177,18.93,184.48,20,191.8a46,46,0,0,0,3,12.07c.7,1.57,1.47,3.37,3.18,3.85,2,.57,2.4,2,2.72,3.6,1.5,7.88,2.2,15.88,3.17,23.83,1.83,14.88,3.77,29.74,7.08,44.38,1.8,7.94,4,15.75,7.7,23.07,1.24,2.45,2.75,3.87,5.66,3.32a15,15,0,0,1,2.93-.05H71.19l.06-.5-8.78-7,1.11-.15c4.34-.46,8.41-1.49,11.36-5.09,2.78-3.4,4.16-7.35,5.11-11.58,1.15-5.07.61-9.6-2.72-13.8s-4-9-3.94-14a6.26,6.26,0,0,0-2-4.93A48,48,0,0,1,63.05,238c-7.44-12.81-12-26.7-15.44-41-1.23-5.18-2.33-10.37-1.66-15.77.91-7.26,4.35-13.29,8.83-18.85a3.25,3.25,0,0,0,.93-2.1c.06-5.65-2.12-10.54-5.06-15.6a4.41,4.41,0,0,1-3.08,3.53,39.82,39.82,0,0,1-3.92,1.54,1.52,1.52,0,0,0-1.2,1.56c-.45,4.87-1,9.74-1.41,14.62-.09,1-.17,1.77-1.53,1.53-1.15-.21-2.09-.21-1.85-1.9.58-4.07.51-8.19.8-12.28s-2.06-6.69-3.87-9.76a16.46,16.46,0,0,1-2.44,7.78,1.74,1.74,0,0,0,.08,1.87c1,2.29,2.08,4.56,3.11,6.84.27.6.76,1.35-.35,1.52-.88.13-1.72,1.66-2.73-.07C29.3,156.26,24.43,153.16,19.64,149.53ZM225.79,394c-1.77-3.81-3.64-7.59-5.28-11.47a3.63,3.63,0,0,0-2.87-2.31c-8-2-15.29-5.64-22.87-9.41,2.27-.89,4.24-1.7,6.25-2.43a31.12,31.12,0,0,1,6-1.46,57.89,57.89,0,0,1,6.18-.35c-2.12-.51-3.89-2.17-6-2.18s-4.19.76-6.3,1.15a60.45,60.45,0,0,0-27.64,12.38c-4.83,3.89-8.23,8.52-8.66,14.91a9.2,9.2,0,0,0,1.23,5.82,42.21,42.21,0,0,1,5.8,14,16.52,16.52,0,0,1-.21,9.42,5.68,5.68,0,0,1-4.94,4.19,60.17,60.17,0,0,1-23-1.06,29.43,29.43,0,0,1-10.75-4.51c-4.81-3.5-5.82-8.4-2.86-13.54a19.82,19.82,0,0,1,1.65-2.64c3.88-4.78.48-13-3.45-15.17a3.47,3.47,0,0,0-2.47-.83,16.35,16.35,0,0,1,1.53,3.85c.79,3.54-2.51,9.08-7.36,7.2-.92-.35-1.06.12-1.2.74-2.94,12.75-1.33,20.42,7.75,27.8,7,5.66,12,12.49,14.54,21.1a1.75,1.75,0,0,0,1.65,1.36,86.08,86.08,0,0,0,11.85,1.31,119.39,119.39,0,0,0,34.2-3.68,97.6,97.6,0,0,0,20.69-7.33c1.16-.59,1.33-1.13.53-2.18-1.89-2.48-3.65-5.06-5.56-7.52a7.65,7.65,0,0,1-1.52-6.21c.48-3.21,1.12-6.38,1.75-9.56,1.63-8.28,5.43-14.87,13.65-18.17C220.75,396.15,223.26,395,225.79,394ZM127,149.15a25.2,25.2,0,0,0-.85,2.45c-.47,2.17-2,2.92-4,3.08a5.78,5.78,0,0,1-3.56-.63,3.91,3.91,0,0,0-4.16,0,31.36,31.36,0,0,0-3.37,1.83c-4.49,3-7.78,7-10.66,11.49a130.33,130.33,0,0,1-10,14c-3,3.57-6.25,6.92-10.86,8.44-.68.23-.74.71-.83,1.27-.52,3.19-1.11,6.38-1.59,9.58a401.23,401.23,0,0,0-3.9,41.1c-.12,2.72.16,5.06,2.62,6.76,2.1-1.81,4.82-2.46,7.87-2.95-.78-.32-1.33-.52-1.87-.77-1.05-.46-2.34-.78-2.3-2.26s1.13-1.9,2.22-2.41A49.62,49.62,0,0,1,92,236.82c.2,0,.23-.08,0-.22l-1.32-.25c6.25-3.25,12.6-5.12,19.53-3.48,0-.3.11-.42.07-.52a158,158,0,0,1-7.83-38.9,64.23,64.23,0,0,1,.69-17,2.5,2.5,0,0,1,1.81-2.17c2.7-1,5.35-2.08,8-3.24a51.22,51.22,0,0,0,11.18-6.22c2.24-1.75,3.48-3.89,2.91-6.84a2.87,2.87,0,0,1,.3-2.47C129,153.43,128.35,151.42,127,149.15ZM111.69,131.8c-2.24,3.14-3.78,3.95-7.55,3.51-1.42-.17-1.52.38-1.49,1.44a20.47,20.47,0,0,0,1.7,6.72c.35.92.19,1.27-.76,1.56a21.74,21.74,0,0,0-4.08,1.6c-7.66,4.06-14,9.85-20,15.91a1.87,1.87,0,0,0-.42.59c-3.16,7.18-4.36,14.47-1.42,22.05.54,1.38,1.17,1.6,2.43.93a26.86,26.86,0,0,0,7.6-6.55c4.15-4.85,7.47-10.28,11-15.55,4-5.87,8.71-10.88,15.54-13.45.61-.23.74-.52.62-1.08-.68-3-.39-6.1-.5-9.15S113.83,134.26,111.69,131.8Zm25.83,317.64c-2.05-6.17-4.91-11.4-9.56-15.53-1.79-1.59-3.62-3.12-5.35-4.77-3.77-3.6-6.83-7.63-7.9-12.93-1.21-6-.55-11.81,1-17.62.17-.64.56-1.23-.18-1.81a59.66,59.66,0,0,0-5.66-4.37,6.59,6.59,0,0,0-5.12-.76c.16.2.21.32.29.35a5.22,5.22,0,0,1,3.79,5.61c-.09,2.77-.74,5.28-3.66,6.39-.91.35-.75.82-.4,1.39a8.14,8.14,0,0,0,3.4,3c1.5.72,2.57,1.33.94,3a4.37,4.37,0,0,0-.71,2.24,46.48,46.48,0,0,0,.69,18.05c.42,1.69.84,3.56,2.22,4.71A64.51,64.51,0,0,0,137.52,449.44ZM92.62,125.37A28.15,28.15,0,0,1,94,130.12c.11,1.09,0,2.25-1,2.73a8.25,8.25,0,0,0-2.84,2.79c-1,1.29-1.94,2.67-3,3.9-1.37,1.51-2.68,1.57-4.42.53-.64-.38-1.09-1.14-2-1.09a11.68,11.68,0,0,1-.88,5.45c-1.19,3.46-2.67,6.84-3.25,10.48-.28,1.73-.53,3.5.59,5.2.3-.25.54-.43.75-.63,6.62-6.38,13.35-12.63,21.81-16.57.94-.43.68-1,.5-1.63-.5-1.66-1.2-3.45-.68-5,.91-2.79-.63-4.69-1.69-6.85S95,126.25,92.62,125.37Zm53.91,112.08c-.75-3.22-2.36-5.81-3.85-8.45-3.2-5.69-6.66-11.25-9.26-17.26-2.82-6.52-5-13.16-2.93-20.39.12-.42.21-.8-.38-1a3.09,3.09,0,0,0-3.82,1.57,15.32,15.32,0,0,0-1.41,5.66c-.55,11,3.23,20.72,9.05,29.8.19.3.45.72.73.77,2.76.43,3.85,2.73,5.07,4.7A9.57,9.57,0,0,0,146.53,237.45Zm3-1.93a41,41,0,0,0,6.28-7.77c4.29-6.84,3.53-10.31-3.09-14.88-1.05-.72-1.68-.83-2.51.31-2.16,3-4.4,5.87-6.68,8.73-.66.83-.35,1.41.07,2.12A82.88,82.88,0,0,1,149.56,235.52ZM67.5,163.91c-3.26,3.49-5,3.59-8.23.82a4.87,4.87,0,0,1-.42-.35c-.6-.66-1.06-.55-1.6.12a40.05,40.05,0,0,0-7.13,12.71c-.47,1.43,0,1.86,1.26,1.39a47.58,47.58,0,0,1,10.88-2.22,1.77,1.77,0,0,0,1.35-.82A25.72,25.72,0,0,0,67.5,163.91ZM89.76,406.46c3.8.62,5.68,2.24,6,5,.11,1.09.06,2.2.07,3.3a6.25,6.25,0,0,0,1.35,4.1c1.94,2.3,4.8,3.07,7.41,4.82-.08-4.38-.11-8.3.92-12.12.24-.89-.34-1.06-.78-1.4a8.17,8.17,0,0,1-3.28-4.08c-.38-1.41-1.15-1.64-2.35-1.55-.74.05-1.47,0-2.21,0A13.65,13.65,0,0,0,89.76,406.46Zm156.45,41.6c4.29,1.64,8.42,3.24,12.57,4.79.46.17,1.1.52,1.52,0s0-.92-.2-1.37c-1.43-3.57-3-7.1-4.25-10.73a6.67,6.67,0,0,0-6.44-5c-.67,0-1.35-.13-2-.14-1.37,0-2.75,0-4.12,0,2.38,1.72,6.25.6,6.77,4.62C250.46,443.51,248.33,445.72,246.21,448.06ZM94.71,424.44a34,34,0,0,1,2.85,5.71,4.27,4.27,0,0,0,2.11,2.42,20.21,20.21,0,0,0,6.62,1.6,38.17,38.17,0,0,1-1.62-8.66c-.08-.88-.39-1.1-1.24-1.09C100.69,424.47,98,424.44,94.71,424.44Zm108.68-53.21c4.84,2.07,9.33,4.2,14.43,5.48-.74-1.77-1.42-3.2-1.94-4.69a2.28,2.28,0,0,0-2-1.61A22.06,22.06,0,0,0,203.39,371.23ZM80.49,138.69l.06-.12h-.1Z"/><path class="cls-3" d="M148,312.45l-1.51,3.18a51.38,51.38,0,0,0,8.32-2.51,52.66,52.66,0,0,0,19.56-13.9c.85-.94,1.34-1.07,2.51-.35,10.73,6.61,21.58,13,32.27,19.67,9,5.61,17.69,11.67,25.31,19.12a28.16,28.16,0,0,1,3.83,4.2,8.13,8.13,0,0,0,5.19,3.31,110.74,110.74,0,0,1,33.6,14.67c15.14,9.93,30.44,19.62,46.19,28.57,1.27.72,2.57,1.42,3.9,2a6.73,6.73,0,0,0,7.41-.95c2.21-1.76,2.37-4.13,1.71-6.67-2-7.8-6.67-13.75-13.07-18.51a215,215,0,0,0-53.44-29.56c-13.48-5-23.93-13.22-31.28-25.57a215.2,215.2,0,0,1-11.37-21.36c-2-4.49-4.23-8.68-9.17-10.69a27.44,27.44,0,0,1,18.36,4.22c5.95,3.74,10.27,9,13.82,15,.41.71.65,2.17,1.59,1.83a3.42,3.42,0,0,0,2.47-3.12,7.4,7.4,0,0,0-1.91-4.66,51.9,51.9,0,0,0-7.4-7.64,5.49,5.49,0,0,1-1.79-2c5.77,1.49,11.24,2.88,14.47,8.31,4.41,7.41,7.94,15.16,9.27,23.77a28.8,28.8,0,0,1,.09,8.24,1.54,1.54,0,0,0,.84,1.79c1.21.69,2.35,1.55,3.59,2.19a137.79,137.79,0,0,1,19.55,12.66,14,14,0,0,0,3.19,1.76c16.71,6.84,31.87,16.07,44.38,29.29a42.11,42.11,0,0,1,7,9.41c3.91,7.54,2.12,15.46-4.52,19.74a15.08,15.08,0,0,1-14.73,1.22,144.08,144.08,0,0,1-16.59-8.62c-12.7-7.37-25.13-15.19-37.16-23.62-3.44-2.42-6.87-4.85-8.89-8.77,0,3.32.28,6.31,2.21,9.23,6.58,10,13,20,21.12,28.87,3.77,4.11,7.7,8.07,13.11,10.1a1.35,1.35,0,0,1,.77.73c2.34,5.1,7,6.87,11.89,8.38a41.53,41.53,0,0,0,5.87,1.44c1.36.21,1.53.82,1.42,2a34.24,34.24,0,0,1-3.1,10.89c-3.52,7.81-8.52,14.68-13.69,21.45-4.64,6.08-9.91,11.67-14.2,18a4.83,4.83,0,0,1-2.11,1.41c-4.36,2.21-8.76,4.35-13.08,6.63-2.89,1.52-5.55,3.36-6.91,6.55-.39.92-1.36.76-2.11.71-2.93-.21-5.86-.43-8.77-.79-2.08-.25-4-.21-5.71,1.3-.7-3.95,0-5.48,3.26-7.27,1.66-.91,3.25-2,5-2.77,1.34-.65,1.17-1.28.55-2.38s-1.07-1.39-2.2-.67c-1.74,1.12-3.64,2-5.39,3.13-2.19,1.39-4.28,1.67-6.44,0a4.53,4.53,0,0,0-4.87-.35c-1.56.67-3.07,1.47-4.91,2.36.86-3.85,2.3-7,5.58-9a32.82,32.82,0,0,1,9.56-3.6c1.78-.46,3.58-.83,5.37-1.24-2.45-3.18-7.27-4.49-10.77-2.82-1.7.82-3.28,1.89-4.92,2.84-.45.25-.83.71-1.35,0-2.44-3.63-6.32-4.58-10.26-5.37l-.72-.12c1.05-3.72,6-8.06,9.7-8.27a15.12,15.12,0,0,1,6.05,1.26c4.07,1.48,8.09,3.12,12.16,4.62,2,.74,4,1.61,6.22,1.05a1.1,1.1,0,0,1,.54,0c5.19,1.58,8.66.51,12.16-3.78a25.53,25.53,0,0,0,4.35-8.43,37.29,37.29,0,0,0,1.83-12.28,9.66,9.66,0,0,0-4.05-7.84,44.63,44.63,0,0,0-10.49-5.59c-6.54-2.73-13.22-5.09-19.72-7.95a31.68,31.68,0,0,1-15.81-14.67c-2.39-4.54-5-9-6.68-13.85a76,76,0,0,0-4.81-11.76c-2.14-3.92-3.88-8-5.68-12.08-1.93-4.34-5.07-5.74-9.8-4.95,3.42,2.37,6.69,4.71,7.81,9.07-2.58-1.06-5-2.1-7.49-3.09a131.17,131.17,0,0,0-35.21-8.37c-22.15-2.4-44.18-5.47-65.75-11.33-7.68-2.09-14.34-5.6-19.86-11.48C77.48,321.9,71.64,316,66,309.83c-.16-.17-.29-.37-.61-.79l7.85-2c.39-.1.68.13,1,.31,14.09,7.73,14.09,7.73,28.66,9.71l-5.41,4.75C116.3,327.64,132.65,323.15,148,312.45Z"/><path class="cls-3" d="M153.44,309.63c1.17-3,2.36-5.95,3.52-8.94a3.54,3.54,0,0,0,.53-1.71,2.09,2.09,0,0,1,.2-.22l-.17,0V299c-1.21.15-1.73,1.21-2.46,1.94-4.87,4.84-10,9.39-16,12.84A52,52,0,0,1,111.52,321a30.49,30.49,0,0,1-6.75-.85l6.74-5.82.07-.57c-15.25.44-29.24-2.8-40.67-13.35,10.43-5.62,13.18-15.2,13-26.15,0-2.81-1.45-5.27-3.15-7.47a19.64,19.64,0,0,1-3.91-12.31,4.27,4.27,0,0,1,2.94-4.35,16,16,0,0,1,8.45-1c.83.12,1.79.66,2.38-.59a2.9,2.9,0,0,0-.3-3.39c-1.18-1.41-3-1.85-4.77-2.8a41.78,41.78,0,0,1,12.52-2.92c4.32-.4,8.4,1.11,13.11,1.9l-6.52-5.06a17.25,17.25,0,0,1,6.32.26,56.66,56.66,0,0,1,19,8,5.35,5.35,0,0,1,1.42,1.65,133.82,133.82,0,0,0,18.29,21.72c4.8,4.5,10.42,7.28,17.21,6.81,5.9-.41,10.8-3.18,15.28-6.84,5.12-4.18,9-9.48,13.13-14.55a21.79,21.79,0,0,0,3.15-6.57c1.48-4.07,3-5.12,7.41-4.91,2.69.13,5.37.37,8,.6,1.35.11,1.89,2.57.91,4.18a7.7,7.7,0,0,1-2.74,2.39,58,58,0,0,1-9.48,4.36c-1.13.43-1.55.83-1,2.07,1,2.15.47,4.32-.23,6.44a48.46,48.46,0,0,1-6.87,12.49c-2.21,3.13-4.59,6.14-6.89,9.21l-.49-.15q.81-6.92,1.61-13.82l-.26-.1c-1.61,3.33-3.18,6.67-4.82,10-5.38,10.89-12.63,20.2-23,26.81a32.68,32.68,0,0,1-7,3.53Z"/><path class="cls-3" d="M19.64,149.53c4.79,3.63,9.66,6.73,12.62,11.86,1,1.73,1.85.2,2.73.07,1.11-.17.62-.92.35-1.52-1-2.28-2.09-4.55-3.11-6.84a1.74,1.74,0,0,1-.08-1.87,16.46,16.46,0,0,0,2.44-7.78c1.81,3.07,4.15,5.79,3.87,9.76s-.22,8.21-.8,12.28c-.24,1.69.7,1.69,1.85,1.9,1.36.24,1.44-.48,1.53-1.53.43-4.88,1-9.75,1.41-14.62a1.52,1.52,0,0,1,1.2-1.56,39.82,39.82,0,0,0,3.92-1.54,4.41,4.41,0,0,0,3.08-3.53c2.94,5.06,5.12,9.95,5.06,15.6a3.25,3.25,0,0,1-.93,2.1c-4.48,5.56-7.92,11.59-8.83,18.85-.67,5.4.43,10.59,1.66,15.77,3.4,14.33,8,28.22,15.44,41a48,48,0,0,0,8.36,10.88,6.26,6.26,0,0,1,2,4.93c-.07,5,.72,9.94,3.94,14s3.87,8.73,2.72,13.8c-1,4.23-2.33,8.18-5.11,11.58-3,3.6-7,4.63-11.36,5.09l-1.11.15,8.78,7-.06.5H55.47a15,15,0,0,0-2.93.05c-2.91.55-4.42-.87-5.66-3.32-3.7-7.32-5.9-15.13-7.7-23.07-3.31-14.64-5.25-29.5-7.08-44.38-1-8-1.67-16-3.17-23.83-.32-1.64-.68-3-2.72-3.6-1.71-.48-2.48-2.28-3.18-3.85a46,46,0,0,1-3-12.07c-1.09-7.32-1.16-14.79-2.61-22.05-.63-3.14-.8-5.81.83-8.76,1.51-2.75,1.5-6,1.4-9.16C19.62,151.18,19.64,150.53,19.64,149.53Z"/><path class="cls-3" d="M225.79,394c-2.53,1.06-5,2.17-7.59,3.19-8.22,3.3-12,9.89-13.65,18.17-.63,3.18-1.27,6.35-1.75,9.56a7.65,7.65,0,0,0,1.52,6.21c1.91,2.46,3.67,5,5.56,7.52.8,1.05.63,1.59-.53,2.18a97.6,97.6,0,0,1-20.69,7.33,119.39,119.39,0,0,1-34.2,3.68,86.08,86.08,0,0,1-11.85-1.31,1.75,1.75,0,0,1-1.65-1.36c-2.56-8.61-7.58-15.44-14.54-21.1-9.08-7.38-10.69-15.05-7.75-27.8.14-.62.28-1.09,1.2-.74,4.85,1.88,8.15-3.66,7.36-7.2a16.35,16.35,0,0,0-1.53-3.85,3.47,3.47,0,0,1,2.47.83c3.93,2.21,7.33,10.39,3.45,15.17A19.82,19.82,0,0,0,130,407.1c-3,5.14-1.95,10,2.86,13.54a29.43,29.43,0,0,0,10.75,4.51,60.17,60.17,0,0,0,23,1.06,5.68,5.68,0,0,0,4.94-4.19,16.52,16.52,0,0,0,.21-9.42,42.21,42.21,0,0,0-5.8-14,9.2,9.2,0,0,1-1.23-5.82c.43-6.39,3.83-11,8.66-14.91A60.45,60.45,0,0,1,201,365.52c2.11-.39,4.2-1.15,6.3-1.15s3.86,1.67,6,2.18a57.89,57.89,0,0,0-6.18.35,31.12,31.12,0,0,0-6,1.46c-2,.73-4,1.54-6.25,2.43,7.58,3.77,14.88,7.45,22.87,9.41a3.63,3.63,0,0,1,2.87,2.31C222.15,386.39,224,390.17,225.79,394Z"/><path class="cls-3" d="M200.68,225.63a29.45,29.45,0,0,0-3.09-.33,2.06,2.06,0,0,0-2.19,1.6,1.85,1.85,0,0,0,1.3,2.17c2.13.93,4.3,1.75,6.45,2.62a36.56,36.56,0,0,1,8.58,4.49,8.39,8.39,0,0,1,2.58,2.88c-2-.19-3.75-.31-5.47-.54a23.19,23.19,0,0,0-5.13-.13,9,9,0,0,0-8.2,6.24c-3.78,10-10.89,17.5-19.56,23.34-8.12,5.46-16.74,4.26-24-2.69a131.41,131.41,0,0,1-19.18-23.34c-1.08-1.64-1.54-3.25-.63-5.13.54-1.09.88-2.28,1.36-3.39a18,18,0,0,1,1-1.69,4.92,4.92,0,0,1,1.7,1.89,62.15,62.15,0,0,0,5.45,7.15c2.69,2.78,4.15,2.86,6.95.27,4.66-4.29,8.91-8.93,11.7-14.71,2.65-5.49,2-9.22-2.45-13.35-2.1-1.93-4.09-4.29-7.4-4.24-.18,0-.38-.43-.57-.67a8.56,8.56,0,0,1-1.85-6.35,4.36,4.36,0,0,1,2.19-3.58c2.42-1.51,5.41-2,7.34-4.37.53-.65,1,0,1.39.33,2.17,1.7,4.34,3.4,6.45,5.17,2.43,2,4.95,2.6,7.67.61a2.18,2.18,0,0,1,2.69.08,50.11,50.11,0,0,1,8.35,6.88,225.74,225.74,0,0,1,16,17.41,12,12,0,0,1,.79,1.21Zm-26.45-17.76c1.62,1.54,1.42,3.16.38,4.85-.25.42-.47.85-.7,1.29-1.68,3.19-1.25,5,1.72,7a28,28,0,0,0,10.63,3.71c1,.17,1.29-.11,1.05-1.15a22.78,22.78,0,0,0-6.84-12.26A13.37,13.37,0,0,0,174.23,207.87Z"/><path class="cls-3" d="M127,149.15c1.32,2.27,2,4.28.38,6.35a2.87,2.87,0,0,0-.3,2.47c.57,2.95-.67,5.09-2.91,6.84A51.22,51.22,0,0,1,113,171c-2.63,1.16-5.28,2.26-8,3.24a2.5,2.5,0,0,0-1.81,2.17,64.23,64.23,0,0,0-.69,17,158,158,0,0,0,7.83,38.9c0,.1,0,.22-.07.52-6.93-1.64-13.28.23-19.53,3.48l1.32.25c.18.14.15.17,0,.22a49.62,49.62,0,0,0-10.22,3.32c-1.09.51-2.17,1.06-2.22,2.41s1.25,1.8,2.3,2.26c.54.25,1.09.45,1.87.77-3,.49-5.77,1.14-7.87,2.95-2.46-1.7-2.74-4-2.62-6.76a401.23,401.23,0,0,1,3.9-41.1c.48-3.2,1.07-6.39,1.59-9.58.09-.56.15-1,.83-1.27,4.61-1.52,7.83-4.87,10.86-8.44a130.33,130.33,0,0,0,10-14c2.88-4.46,6.17-8.54,10.66-11.49a31.36,31.36,0,0,1,3.37-1.83,3.91,3.91,0,0,1,4.16,0,5.78,5.78,0,0,0,3.56.63c2-.16,3.51-.91,4-3.08A25.2,25.2,0,0,1,127,149.15Z"/><path class="cls-3" d="M111.69,131.8c2.14,2.46,2.56,5.44,2.67,8.53s-.18,6.13.5,9.15c.12.56,0,.85-.62,1.08-6.83,2.57-11.58,7.58-15.54,13.45-3.56,5.27-6.88,10.7-11,15.55a26.86,26.86,0,0,1-7.6,6.55c-1.26.67-1.89.45-2.43-.93-2.94-7.58-1.74-14.87,1.42-22.05a1.87,1.87,0,0,1,.42-.59c6.07-6.06,12.37-11.85,20-15.91a21.74,21.74,0,0,1,4.08-1.6c1-.29,1.11-.64.76-1.56a20.47,20.47,0,0,1-1.7-6.72c0-1.06.07-1.61,1.49-1.44C107.91,135.75,109.45,134.94,111.69,131.8Z"/><path class="cls-3" d="M137.52,449.44a64.51,64.51,0,0,1-26.25-13c-1.38-1.15-1.8-3-2.22-4.71a46.48,46.48,0,0,1-.69-18.05,4.37,4.37,0,0,1,.71-2.24c1.63-1.71.56-2.32-.94-3a8.14,8.14,0,0,1-3.4-3c-.35-.57-.51-1,.4-1.39,2.92-1.11,3.57-3.62,3.66-6.39A5.22,5.22,0,0,0,105,392c-.08,0-.13-.15-.29-.35a6.59,6.59,0,0,1,5.12.76,59.66,59.66,0,0,1,5.66,4.37c.74.58.35,1.17.18,1.81-1.51,5.81-2.17,11.64-1,17.62,1.07,5.3,4.13,9.33,7.9,12.93,1.73,1.65,3.56,3.18,5.35,4.77C132.61,438,135.47,443.27,137.52,449.44Z"/><path class="cls-3" d="M92.62,125.37c2.36.88,4.1,1.95,5.11,4s2.6,4.06,1.69,6.85c-.52,1.58.18,3.37.68,5,.18.61.44,1.2-.5,1.63-8.46,3.94-15.19,10.19-21.81,16.57-.21.2-.45.38-.75.63-1.12-1.7-.87-3.47-.59-5.2.58-3.64,2.06-7,3.25-10.48a11.68,11.68,0,0,0,.88-5.45c1,0,1.4.71,2,1.09,1.74,1,3,1,4.42-.53,1.1-1.23,2-2.61,3-3.9a8.25,8.25,0,0,1,2.84-2.79c1-.48,1.14-1.64,1-2.73A28.15,28.15,0,0,0,92.62,125.37Z"/><path class="cls-4" d="M146.53,237.45a9.57,9.57,0,0,1-6.8-4.62c-1.22-2-2.31-4.27-5.07-4.7-.28,0-.54-.47-.73-.77-5.82-9.08-9.6-18.79-9.05-29.8a15.32,15.32,0,0,1,1.41-5.66,3.09,3.09,0,0,1,3.82-1.57c.59.22.5.6.38,1-2,7.23.11,13.87,2.93,20.39,2.6,6,6.06,11.57,9.26,17.26C144.17,231.64,145.78,234.23,146.53,237.45Z"/><path class="cls-3" d="M67.5,163.91a25.72,25.72,0,0,1-3.89,11.65,1.77,1.77,0,0,1-1.35.82,47.58,47.58,0,0,0-10.88,2.22c-1.3.47-1.73,0-1.26-1.39a40.05,40.05,0,0,1,7.13-12.71c.54-.67,1-.78,1.6-.12a4.87,4.87,0,0,0,.42.35C62.46,167.5,64.24,167.4,67.5,163.91Z"/><path class="cls-3" d="M89.76,406.46a13.65,13.65,0,0,1,7.09-1.94c.74,0,1.47,0,2.21,0,1.2-.09,2,.14,2.35,1.55a8.17,8.17,0,0,0,3.28,4.08c.44.34,1,.51.78,1.4-1,3.82-1,7.74-.92,12.12-2.61-1.75-5.47-2.52-7.41-4.82a6.25,6.25,0,0,1-1.35-4.1c0-1.1,0-2.21-.07-3.3C95.44,408.7,93.56,407.08,89.76,406.46Z"/><path class="cls-3" d="M246.21,448.06c2.12-2.34,4.25-4.55,3.83-7.78-.52-4-4.39-2.9-6.77-4.62,1.37,0,2.75,0,4.12,0,.67,0,1.35.1,2,.14a6.67,6.67,0,0,1,6.44,5c1.26,3.63,2.82,7.16,4.25,10.73.18.45.57.95.2,1.37s-1.06.14-1.52,0C254.63,451.3,250.5,449.7,246.21,448.06Z"/><path class="cls-3" d="M94.71,424.44c3.24,0,6,0,8.72,0,.85,0,1.16.21,1.24,1.09a38.17,38.17,0,0,0,1.62,8.66,20.21,20.21,0,0,1-6.62-1.6,4.27,4.27,0,0,1-2.11-2.42A34,34,0,0,0,94.71,424.44Z"/><path class="cls-4" d="M203.39,371.23a22.06,22.06,0,0,1,10.53-.82,2.28,2.28,0,0,1,2,1.61c.52,1.49,1.2,2.92,1.94,4.69C212.72,375.43,208.23,373.3,203.39,371.23Z"/><path class="cls-3" d="M200.87,225.46l.28.2a.29.29,0,0,1-.47,0Z"/><polygon class="cls-3" points="80.5 138.69 80.45 138.56 80.55 138.57 80.5 138.69"/><path class="cls-3" d="M153.64,309.81c-.15.14-.31.19-.46,0l.26-.2Z"/><path class="cls-2" d="M157.53,299v-.26l.17,0a2.09,2.09,0,0,0-.2.22Z"/><path class="cls-2" d="M174.23,207.87a13.37,13.37,0,0,1,6.24,3.42,22.78,22.78,0,0,1,6.84,12.26c.24,1-.08,1.32-1.05,1.15A28,28,0,0,1,175.63,221c-3-1.94-3.4-3.79-1.72-7,.23-.44.45-.87.7-1.29C175.65,211,175.85,209.41,174.23,207.87Z"/><path class="cls-2" d="M428.3,46c10.28,2.53,17.19,9.23,22,18.46a9,9,0,0,0,2.15,2.88c5,4.17,7.53,9.71,8.85,16,1.61,7.56-1.19,13.87-5.5,19.74-6.34,8.63-14.17,15.43-24.2,19.49-.39.16-.79.31-1.19.44-3.64,1.2-3.73,1.47-4.05,5.36-.62,7.62,1.27,14.71,4.25,21.61,4,9.27,9.64,17.58,15,26.06,10.07,15.88,19.51,32.08,26.46,49.63,2.84,7.17,4.49,14.51,3.94,22.26-.62,8.66-5,14.43-14.22,15.31-7.05.67-13-1.61-18.49-5.77a9.94,9.94,0,0,0-2.75-1.87c2.54,7.71,2.27,15.7,4.49,23.26s7.47,11.48,15.06,12.62c1.37.21,3.2,0,3.95.77s.2,2.55.18,3.9a281.45,281.45,0,0,1-1.8,29.45c-.7,5.8-.85,11.68-2.62,17.3-2.43,7.7-6.21,14.78-10.25,21.72a2.92,2.92,0,0,1-1.75,1.21,77.73,77.73,0,0,0-9.62,4.26,6.27,6.27,0,0,0-3.33,4.92c-.47,3.24-1.82,4.59-5.1,4.62-2.38,0-4.76-.27-7.14-.38-5.24-.23-6.72,1-7.68,6.1-.35,1.91-.78,3.8-1.27,6.12-.92-4.89-2.57-9.24-2.39-13.95a19.91,19.91,0,0,1,.7-4.68c.19-.69.51-1.33-.81-1.33a4.76,4.76,0,0,1-3.73-2,43.66,43.66,0,0,0-4.11-4.69c-3.44-3.3-5.43-3.58-9.58-1.3-.59.32-1.19.62-2,1.06,1.14-3.66,2.26-7.07,4.61-10,1.89-2.35,1.3-5-1.45-6.27a17.19,17.19,0,0,0-9.3-1.2l-2.73.28A13.43,13.43,0,0,1,388,341a21.19,21.19,0,0,1,12.6-3.56c1.14,0,1.7-.21,1.58-1.48a4.11,4.11,0,0,1,.71-2.4,7.52,7.52,0,0,0,.48-1c.64-1.6,1.28-3.35.89-5-.47-2-2.63-1.33-4.08-1.69-1.95-.48-3.94-.76-5.86-1.12,2.5-2,9-3.42,12.84-2.75a38.65,38.65,0,0,1,9.56,2.89,6.66,6.66,0,0,1,3.8,4.17c.82,2.53,1.7,5.05,2.55,7.58a5.54,5.54,0,0,0,1.31,2.3c3.54-4.88,7.52-9.4,6.87-16-.26-2.73,0-5.48-.58-8.21-.82-4-3.76-6.34-6.6-8.7-7.11-5.89-14.4-11.56-21.47-17.49-4.25-3.57-8.65-7.09-11.63-11.89-3.19-5.12-4.33-10.92-5-16.82-.31-2.87-.17-2.82-3-2-8.09,2.29-11.9,8.07-13.25,16a54,54,0,0,0-.68,11.5c.07,1.59-.28,2.14-2,2.18-16.1.34-31.36-3.48-46.17-9.36a114.67,114.67,0,0,1-30.28-17.3,56.45,56.45,0,0,1-9.23-9.18,4.55,4.55,0,0,0-2.83-1.69,15.43,15.43,0,0,1-9.84-6.43,6.27,6.27,0,0,1-1.26-3.69,4.27,4.27,0,0,0-3.05-4.14c-1.08-.4-1.75-1-1.48-2.12s1.19-1.29,2.17-1.24c1.4.06,2.8.15,4.21.24.53,0,1,.13.67-.72-1.17-2.87-.9-5.89-.79-8.87a2.1,2.1,0,0,0-1.84-2.4c-3.19-.88-6.3,0-9.45.32,4.32-6.81,10.9-9.6,18.62-8,1.55.33,3.1.63,4.66.89,2.36.38,4.73-2.42,4.06-4.75-.16-.53-.67-.67-1.07-.93l-7.08-4.51c-.05,0-.06-.11-.11-.21,3.3-1.23,6.6-2.23,10.2-1.28,2.47.65,4.3,2.22,6.1,3.86,2.12,1.94,4,4.18,6.29,5.91a8.57,8.57,0,0,0,3.56,1.76c2.35.46,3.38-.53,3-2.86-.35-2.07-1.14-4.08-.69-6.28.21-1,.6-1.28,1.57-1.29,4.42,0,8.2,2.83,9.84,7.65A21.47,21.47,0,0,1,318,219.3a8.38,8.38,0,0,1-2.21,4.7c-1.54,1.91-3.46,3.47-4.82,5.53a5.54,5.54,0,0,0-.1,6.64c5.45,8.06,12.93,12,22.74,11.11,3.79-.36,5.41-2.66,5.73-7.17.42-5.94,1.55-11.71,5.15-16.67a17.1,17.1,0,0,1,12.49-7c3.27-.39,6.55-.24,10-.35-.35-.83-1-1.06-1.51-1.39a104.26,104.26,0,0,0-37.25-14.41c-7.38-1.37-14.84-2-22.28-2.9-12.74-1.56-25.55-2.67-38-5.91-4.53-1.18-9-2.69-12.76-5.54a5.53,5.53,0,0,1-1.51-1.32c-1.24-2-3.16-1.92-5-1.44a6.39,6.39,0,0,1-5-.83,254.62,254.62,0,0,1-26-16.91,291.76,291.76,0,0,1-41.56-36c-2.09-2.23-4.1-4.54-6.1-6.86a3.19,3.19,0,0,0-1.95-1.22c-4.73-.62-8.23-3.47-11.62-6.46-5.3-4.7-10.13-9.95-16.1-13.89a1.43,1.43,0,0,1-.58-1.58c.36-3-1.25-4.84-3.63-6.2-3.47-2-7.32-2.52-11.22-2.83-2.17-.16-4.34-.35-6.53-.72,8.49-2,17-4,25.83-4.47-2.14-.87-1.89-2.49-1.79-4.16a13.3,13.3,0,0,0-.53-4.89c-1.32-4.3-4.67-5.79-8.73-6.33-1.67-.22-3.32-.55-5.33-.89,6.22-1.59,12-3.42,18.17-3.53a7.54,7.54,0,0,1,2.56.06c2.79,1,4.11-.44,5.42-2.65,3.14-5.25,3.53-3.63-1.3-7.76-1.66-1.42-3.39-2.74-5.2-4.19,10.37.39,19.26,3.83,25.89,11.73,1.91,2.28,3.63,2.75,6.26,2.15,1.59-.37,3.2-.63,4.76-1.15a2.09,2.09,0,0,0,1.57-2.91,62.56,62.56,0,0,1-1.08-8.82c4.69,3.5,7.93,7.64,9.28,13.11a17.87,17.87,0,0,1,.64,5.6,10.14,10.14,0,0,1-5.86,8.51c-4,2.09-6.08,5.9-9.21,8.73-1,.94-.94,2.51-.2,3.88,3.2,6,8.19,10.08,13.93,13.41,8.33,4.83,17.4,8,26.37,11.36,4.36,1.64,8.73,3.24,13.46,5-.88-3.74-1.64-7.22-2.52-10.66-2.59-10.17-6.44-19.93-10-29.8a69.39,69.39,0,0,1-3.58-27.72,74,74,0,0,1,3.14-16.63c1-3.52-.24-5-3.87-4.44-.85.12-1.71.07-2.57.15s-1.53.19-2.69.34A43.9,43.9,0,0,1,217,28a6.48,6.48,0,0,1,6.46,0c1.14.58,2.19,1.32,3.27,2,2.42,1.58,2.72,1.59,5,0,1.8-1.26,3.27-3,5.29-3.91.78-.37.25-.83.12-1.21a27.67,27.67,0,0,0-3-5.61c-.38-.6-.78-1.18-1.34-2,5.74.15,10.78,1.11,14.44,5.68a43.48,43.48,0,0,0,3,3.24,4.77,4.77,0,0,0,2.31,1.43c3.66.8,8.13-3.59,7.35-7.25-.3-1.41-.73-2.79-1.21-4.6,3.77,3.35,7.37,6.27,9.36,10.67,1.45,3.23.29,6.34-.24,9.49a33.54,33.54,0,0,0-.9,6.68c.1,2.5,1.72,3.45,4,2.3a18.48,18.48,0,0,0,4.94-4c1-1,1.95-2.13,3-3.26,1.94,9.74-6,20.56-15.55,21.33-3.69.29-7.4.63-11.07,1.24-1.54.26-1.67,1.09-1.82,2.2A23.46,23.46,0,0,0,252,74.11c3,7.89,7.85,14.65,13.33,21a1.46,1.46,0,0,0,1.8.37,57.46,57.46,0,0,1,15-2.13c.2-.6-.39-.5-.6-.7-.63-.64-1.58-1.15-1.31-2.22.32-1.22,1.46-1.38,2.48-1.5a57.14,57.14,0,0,1,23.84,2.38c.22.07.45.11.71.17.61-3.54,1.29-7,3.42-9.92.67-.91.07-1.32-.39-1.85a66.61,66.61,0,0,1-11.55-18.28,36.76,36.76,0,0,1-3.17-15.79c.26-5.93,5.11-9.38,10.88-7.6.45.14.86.06.66.87-2,8.68,1.9,15.65,6.59,22.34,4,5.67,8.74,10.7,13.31,15.88a85.8,85.8,0,0,1,5.5,6.9c1.93-2.51,4.18-4.65,5.69-7.35a10.92,10.92,0,0,0-3.72-14.28c-3.85-2.37-3.84-2.36-6.69,1.15-1.11,1.38-2.26,2.72-3.41,4.07a4.21,4.21,0,0,1-.74.47c.65-3.4,1.24-6.61,1.91-9.79a4,4,0,0,0-.12-2.31,22.51,22.51,0,0,1-1.28-6,6,6,0,0,1,2.9-5.74,33.62,33.62,0,0,1,6.4-3.07c1.84-.71,3.86-1.25,4.49-3.53.15-.5.56-.27.91-.28,2.47,0,4.2,1.46,5.95,2.88,2.37,1.93,4.65,4,7,5.88a5,5,0,0,0,5.83.31,3.93,3.93,0,0,1,3.7-.19,35.68,35.68,0,0,1,9.62,6.22,171.05,171.05,0,0,1,20.38,20.35c1.88,2.18,1.63,3.32-1.11,4.68,2.59,1.41,5.1,2.74,7.57,4.13a14.57,14.57,0,0,1,6.74,7.68A8.11,8.11,0,0,1,401.59,99c-3.83,2.87-8.35,3.86-12.92,4.54-1.81.27-2.68.5-2.9,2.77-.63,6.62-3.89,12.32-7.34,17.86a131.74,131.74,0,0,1-15.48,20c-.17-1.94.56-3.68.06-5.67-1.72,2.2-3.38,4.25-5,6.36-.58.77.41.87.74,1.09a194.81,194.81,0,0,1,18.46,14.43A214.26,214.26,0,0,1,419,209.75a6.19,6.19,0,0,0,2.54,2.45c5.08,2.59,8.36,7,11.43,11.6,3.72,5.57,6.93,11.49,11.24,16.65a18.49,18.49,0,0,0,16,6.87c2.59-.15,3.78-2.1,3.47-5.35-.58-6.1-3.06-11.58-5.58-17-5.12-11.09-11.93-21.2-18.22-31.62-7.22-12-14.78-23.76-20.58-36.48a142,142,0,0,1-10.1-29.91c-2.08-10,0-19.32,4.1-28.4,3.65-8.11,8.83-15.24,14.16-22.29a73.56,73.56,0,0,0,7.45-11.67,8.49,8.49,0,0,0-.34-8.64,103.62,103.62,0,0,0-6.08-8.47l-.64-.86ZM368,228.2l0,0,0,.05a121,121,0,0,0,15.86,9.12c-.06-.87-.1-1.47-.14-2.08-.32-4.12-.94-4.84-5-5.88A45,45,0,0,0,368,228.2ZM274.18,46.54A10.64,10.64,0,0,1,271,48.28c-2.88.91-6.17-.51-6.76-3.33-.43-2.1-1.06-2.46-3.24-2.55a15.54,15.54,0,0,0-10.63,3.71c-4.31,3.42-7.63,7.74-10.87,12.13-5.16,7-9.41,14.6-14.21,21.83a2.88,2.88,0,0,0-.39,3c4.54,12.13,8.92,24.33,11.24,37.13a4.36,4.36,0,0,0,3.14,3.69c1.12.43,1.44.1,1.83-.85a24.54,24.54,0,0,1,12.21-12.86c.42-.21,1.14-.15,1.23-1.24H244.07c5.82-5.22,11.64-9.34,18.51-12.1-.5-.59-.89-1-1.27-1.52-5.47-6.65-10.29-13.69-13-22a23.28,23.28,0,0,1-.52-14.25,2.26,2.26,0,0,1,2-1.77,108.05,108.05,0,0,1,12-1.47,14.38,14.38,0,0,0,11.94-7.71c.27-.47.89-.94.4-1.62l.23.17.09-.14Zm48,122.61c-10.37,7.36-22,10.26-34.58,9.72-2.95-.12-6-.23-8.59-2.09-1-.68-.87-1-.11-1.72,1.12-1.07,2.1-2.27,3.18-3.46-1,0-2,0-3,0a94.21,94.21,0,0,1-16.42-1.46c-4.22-.8-8-2.31-10.76-6l4.25-.57a10.25,10.25,0,0,0,9.33-10.61c0-4.46-1.86-8.15-4.62-11.46-3.82-4.56-8.93-7.38-14-10.15-9.64-5.21-20-8.84-30.2-12.63-9.11-3.37-18.17-6.84-26.58-11.85-15.74-9.35-19.48-26-17.17-38.53a2.52,2.52,0,0,0-.6-2.16,30.46,30.46,0,0,0-11.71-9.23c-.41-.18-.8-.52-1.45-.28,1,2,.25,3.7-.83,5.33-.68,1-1.29,2.09-2,3s-.56,1.38.11,2.19a38.5,38.5,0,0,1,6.23,11.36,6.46,6.46,0,0,1,.65,3.57c-.58,2.68-1.28,5.34-1.94,8a14,14,0,0,1-.94-4.51c-.12-6.29-3.27-11.14-7.2-15.65a1.92,1.92,0,0,0-.85-.66,28.27,28.27,0,0,0-11.53-.17,13.68,13.68,0,0,1,4.85,11.38,2.4,2.4,0,0,0,1.49,2.55c1.85.93,3.67,2,5.47,3,.52.3,1.74.4.92,1.46-.57.75-.39,2.28-2.34,1.71-4.94-1.44-9.93-.49-15.4.16,4.17,2.07,7.05,4.54,7.25,9a1.09,1.09,0,0,0,.58.86c5.84,4.29,10.81,9.58,16.26,14.31a18,18,0,0,0,9.53,4.77,3.49,3.49,0,0,1,2.35,1.24,227.53,227.53,0,0,0,30.87,30.1,305.66,305.66,0,0,0,42.36,29.66,4.48,4.48,0,0,0,3.13.64,46.24,46.24,0,0,1,8.79-.59c7.59.22,15.17.55,22.76.83.05,0,.09-.07.14-.1v.36l-22.63,2.87a26.83,26.83,0,0,0,7.33,3.65c8.28,2.79,16.89,4,25.49,5.15,11.94,1.64,24,2.52,35.89,4.42,20.67,3.29,39.1,11.43,54.69,25.61.42.38.71,1,1.57,1-1-4.06-.83-8.12-1-12.63,2.51,4.13,4.95,7.73,5.74,12.21a123.65,123.65,0,0,1,1.38,18.11c.19,7.35.32,14.69,1.45,22s3.88,13.52,9.62,18.43c4.43,3.78,8.77,7.65,13.3,11.3,5.33,4.31,10.84,8.4,15.95,13a16,16,0,0,1,5.6,10,58.59,58.59,0,0,1,.23,10.26,17.29,17.29,0,0,1-3.5,9.49,40.32,40.32,0,0,0-3.66,5.49c-1.19,2.47-3.23,3.17-5.61,3.43a10.68,10.68,0,0,1-4-.2c-2.93-.82-5.84-1.73-8.8-2.46-5.82-1.44-11.61-1.79-17.21.91-.61.29-1.36.49-1.64,1.32a17.3,17.3,0,0,1,1.76.15c3.32.58,6.65,1.36,8.19,4.76.69,1.52,1.54,1.7,2.78,1.32,8.27-2.56,14.8,2,21.7,5.13a5.23,5.23,0,0,1-1.48,0c-6-.72-12-1.78-18.08-1.73a7.79,7.79,0,0,0-7,5.17,12.12,12.12,0,0,1,8,4c1.37,1.4,2.58,2.94,3.85,4.43s2.09,1.55,3.5.21,2.64-2.74,4.12-3.92c6-4.83,8.24-5,15.84-4.48-2.64,1.35-5,2.66-7.39,3.75a21,21,0,0,0-7.49,5.16,14.58,14.58,0,0,0-3.63,10.49c2.56-2.16,5.31-2.49,8.18-2.34,2.26.12,4.52.27,6.78.41,1.36.09,2.13-.34,2.28-1.89a9,9,0,0,1,5.25-7.44,73.47,73.47,0,0,1,8.71-3.86,3.38,3.38,0,0,0,1.88-1.6,133.51,133.51,0,0,0,6.65-13.06,42.13,42.13,0,0,0,3.62-11.32A339.56,339.56,0,0,0,461,297.66c0-2.75.05-2.76-2.62-3.26-8.59-1.62-14.13-6.58-16.53-15a59.75,59.75,0,0,1-1.86-9.72c-.84-7.72-2.42-15.22-6-22.18-3.5-6.79-7.07-13.55-10.6-20.32-.19-.36-.36-.73-.66-1.35a2.92,2.92,0,0,1,1.53,1.44c3.31,4.77,6.65,9.53,9.93,14.34,2.62,3.84,5.05,7.81,8.48,11,4.94,4.65,10.53,7.76,17.55,7.51,7.35-.25,11.47-3.81,12.45-10.7a36.87,36.87,0,0,0-.17-10.8c-1.05-6.9-3.8-13.26-6.64-19.56-7.26-16.16-16.36-31.3-26-46.14-5-7.76-9.83-15.64-13.22-24.28-3.13-8-4.65-16.08-2.83-24.61.43-2,1-3.72,3.56-3.6a5.37,5.37,0,0,0,1.93-.53c11.31-4.2,19.6-12,26-22,3.66-5.68,4-11.68,1.82-17.92a20.91,20.91,0,0,0-3.89-7.15c-.3,1.39-.54,2.52-.8,3.65-1.23,5.43-2.4,10.89-5.11,15.82-1.93,3.52-3.73,4.11-7.45,2.6l1.64-2.44a38.33,38.33,0,0,0,5.92-13.33c1-4.49,1.89-9-.09-13.51a28.35,28.35,0,0,0-9.57-11.36c-.06-.17-.15-.33-.33-.2s0,.27.05.41c2.41,4.24,2.07,8.35-.25,12.54a101,101,0,0,1-8.1,12.22c-4.9,6.44-9.5,13-12.91,20.44-4.28,9.28-5.94,18.83-3.43,28.91a150,150,0,0,0,9.43,26.95c6.16,13.26,14,25.63,21.62,38.1,6.82,11.16,14,22.13,19.08,34.24,2,4.74,3.88,9.53,3.89,14.8s-2.5,7.9-7.73,7.86c-8-.07-14.18-3.54-18.86-10-4-5.54-7.42-11.52-11.36-17.12-2.67-3.79-5.71-7.2-10.06-9.14a4.62,4.62,0,0,1-2-2.07,200.1,200.1,0,0,0-20.39-28,212.32,212.32,0,0,0-38.8-35.2c-1.54-1.08-2.42-1.24-3.83.3a129.61,129.61,0,0,1-12.76,12.15,55.56,55.56,0,0,1-12.41,8.4,9.2,9.2,0,0,1-5.34.85c-.83-.12-1.24-.42-.85-1.29.2-.13.33-.3.12-.49C322.55,169,322.34,169.1,322.2,169.15Zm-37.83,5.58a1,1,0,0,0,.91.53,58.19,58.19,0,0,0,18-1.25A46.22,46.22,0,0,0,329.6,157.1c1.36-1.73,2.88-3.32,4.33-5l.34.25-6.22,14.07a46.38,46.38,0,0,0,7.38-4.77,174,174,0,0,0,18.78-17.54c4-4.15,7.4-8.66,9.31-14.13.64-1.84,1.77-.62,2.69-.67,1.2-.06.93.82.88,1.54-.08,1.16-.15,2.32-.23,3.48,5.64-6.75,10.72-13.7,14-21.76a21.65,21.65,0,0,0,1.84-8.37c0-1.06-1-2.36-.1-3.07.76-.57,2.13-.34,3.22-.46.12,0,.25,0,.37,0,4.25-.56,8.5-1.21,12.28-3.41s4.42-5.56,1.88-9.14a2.56,2.56,0,0,0-2.27-1.22c-4,0-8-.16-11.94-.26s-5.68,1-7.36,4.72a112.89,112.89,0,0,1-14.64,23.82c-4.1,5.14-9.42,7.58-16.15,6.49a31.78,31.78,0,0,1-10.7-4c-7.82-4.49-14.46-10.49-21-16.62-8.38-7.9-18.67-9.08-29.6-8.88.08.38.44.4.65.59a2.36,2.36,0,0,1,.74,2.82c-.44,1.06-1.49,1.15-2.5,1.14s-2.33,0-3.49,0a47.44,47.44,0,0,0-26.69,7.77c-.5.32-1.24.5-1.36,1.3A10.74,10.74,0,0,1,258.7,107c2,1.37,1.9,3.55-.24,4.63-1.14.58-2.35,1-3.5,1.57a21.65,21.65,0,0,0-10.73,11.07c-.44,1-.6,1.7.73,2.18a22.79,22.79,0,0,1,3.58,1.83c5.64,3.2,11.37,6.32,15.44,11.59,3.51,4.54,5.65,9.53,4.76,15.45-.76,5-3.61,8.41-8.4,10.7,10.38,2.68,20.63,2.06,31.23,1.88Zm24.29,32c.21,1.4.42,2.53.56,3.67.54,4.53-1.77,6.87-6.31,6.39a5.77,5.77,0,0,1-1.94-.49c-.86-.43-1.17-.08-1.52.64a78.78,78.78,0,0,0-3.12,7.83,17.37,17.37,0,0,0,2.18,16.41c2.43,3.52,4.88,7,7.23,10.61,2.81,4.28,5.41,8.82,5.5,14,.06,3.82,1.67,5.4,4.91,6.8,15.23,6.57,30.87,11.28,47.62,11.55,1.5,0,2.05-.21,2.07-1.94.08-5.7.67-11.35,3.1-16.65,2.93-6.36,8.16-9.7,14.73-11.27,1.18-.28,1.71-.65,1.61-2-.26-3.23-.3-6.48-.38-9.73a1.38,1.38,0,0,0-.95-1.51A114.32,114.32,0,0,1,363,229a10,10,0,0,1-1.55-1.28,2.81,2.81,0,0,1-.52-2.61c.21-.94,1.26-.47,1.91-.47,2.57,0,5.14.16,7.71.19,2.82,0,5.59.59,8.45.75-1.62-1.66-3.36-3.08-5-4.6a6,6,0,0,0-4.15-1.58c-3.56-.06-7.11-.18-10.66,0-7.6.38-12.22,3.86-14.78,11-1.35,3.79-1.68,7.75-2.15,11.7-.55,4.69-3.11,7.53-7.79,8.16-11,1.5-19.45-2.89-25.81-11.65-3-4.2-2.8-8,.49-12.08,1.2-1.47,2.57-2.8,3.83-4.21a5.45,5.45,0,0,0,1.75-3.15,16,16,0,0,0-2-9.55A5.49,5.49,0,0,0,308.66,206.77Zm21.69-152.2c1.08,2.23,2.9,3.45,4.89,4.6,8.05,4.62,9.81,14.21,4,21.55a66,66,0,0,0-5.73,7.83c-1.62,2.84-3.82,3.43-7.07,2.79-3.94-.78-6.76-3.32-9.65-5.76-3.7-3.14-3.9-3.09-5.44,1.72a6.25,6.25,0,0,0,.19,5c.86,1.75,2.52,2.21,3.76,3.31,3.94,3.49,7.86,7,11.88,10.41,5.09,4.31,10.32,8.44,16.63,10.9,7.8,3,13.38,1.64,18.32-4.82a109.72,109.72,0,0,0,13.59-22.52c1.55-3.53,4.1-6,8-6.46a42.14,42.14,0,0,1,5.5.06c1.47,0,2.94,0,4.78,0-2.8-1.51-5.27-2.83-7.73-4.17a15.22,15.22,0,0,1-3.67-2.41c-1.31-1.33-1-2.57.62-3.46,1.47-.81,2.69.48,4.29.24-.52-.62-.92-1.14-1.36-1.62a170.29,170.29,0,0,0-16.36-16.1,43.07,43.07,0,0,0-8.71-6.08,2.41,2.41,0,0,0-2.23-.24c-3.62,1.53-7,1.21-10.07-1.45-2.5-2.17-5.06-4.25-7.59-6.38a1.44,1.44,0,0,0-2.3.09,11.19,11.19,0,0,1-4.42,2.53,23.4,23.4,0,0,0-5.79,2.73,2.83,2.83,0,0,0-1.52,2.54A17.71,17.71,0,0,0,329,56.26ZM269.76,235.75a12.65,12.65,0,0,1,.77,3c0,2.45,1.38,4,3.06,5.34a14.08,14.08,0,0,0,6.84,2.9,3,3,0,0,1,2.24,1c6,8,13.95,13.82,22.51,18.84.91.53,2.06,1.72,2.8,1.17s.09-2.06-.11-3.14c-1-5.17-3.67-9.53-6.6-13.78-2-2.92-4-5.83-6-8.8A19.75,19.75,0,0,1,292.86,225a67.38,67.38,0,0,1,3.77-9.72c.3-.62.61-1.09-.11-1.74-2.27-2.05-4.43-4.22-6.68-6.29a5.37,5.37,0,0,0-3.65-1.76c3.69,1.42,2.09,4,1.74,6.37a4.29,4.29,0,0,1-.16.71c-1.07,3.27-2.84,4.5-6.31,4.39-2.33-.07-4.58-.78-6.88-1-2.73-.32-5.44-.43-8.06,1.16.7.2,1.23.34,1.75.5,3.68,1.11,4.13,1.72,4.15,5.65,0,1.59,0,3.18,0,4.77a4.91,4.91,0,0,0,2.29,4.53,1.06,1.06,0,0,1,.56,1.33c-.28,1.57-.83,2.62-2.74,2.13A15.22,15.22,0,0,0,269.76,235.75ZM222.93,77.26c.69-.33.9-1,1.25-1.57,2.65-4.18,5.19-8.43,7.91-12.57,4.48-6.8,9.09-13.53,15.33-18.9,3.9-3.36,8.23-5.66,13.68-5,1.26.14,2.8,0,3.17-1.79.4-1.91.71-3.84,1.12-5.76.61-2.9-.51-5.18-2.53-7.37A10.37,10.37,0,0,1,256,30.14a12.29,12.29,0,0,0-5.83,3.63c-1.76,1.78-3.88,3.23-5.12,5.47a4,4,0,0,1-2.62,2,35.54,35.54,0,0,0-21.24,16.94,4.89,4.89,0,0,0-1,2.72C220.67,66.4,221,71.94,222.93,77.26ZM303.16,44a10.92,10.92,0,0,1,0-1.28c.18-1.28-.07-1.66-1.55-1.35-2,.42-2.52,1.61-2.68,3.34A28,28,0,0,0,300.24,56a56.59,56.59,0,0,0,22,29.56,13.45,13.45,0,0,0,6,2.15c.62.09,1.45.4,1.86-.3s-.27-1.12-.57-1.6a61.11,61.11,0,0,0-6-7.45C318.48,72.54,313.21,66.9,309,60.37,305.86,55.38,303.36,50.12,303.16,44Zm-82.33,8.43,1-1.26a39.13,39.13,0,0,1,17.19-12.37,8.43,8.43,0,0,0,4.61-3.24c1.33-2,3.35-3.37,5.12-5,.39-.36,1.14-.69.24-1.38a49.91,49.91,0,0,1-5.36-5.52,7.55,7.55,0,0,0-4.39-2.37c.48,1.36,1,2.54,1.31,3.77.54,2.06-.12,3.18-2.12,3.83a7.18,7.18,0,0,0-2.27,1.52,29.27,29.27,0,0,1-3.95,3,5.69,5.69,0,0,1-6.39-.17l-2.37-1.56c.63,3.59.62,3.59-.54,7.43A42.72,42.72,0,0,0,220.83,52.47Zm-31.48,9.06c.1,3-1.7,4.06-3.66,4.93-2.6,1.16-5.43,1.41-8.21,1.8-.86.13-1.27.38-1.41,1.31a30.26,30.26,0,0,0,.79,14c.59,1.9.9,2.07,2.07.45,2.63-3.66,6.1-6.27,9.77-8.69.26-.17.46-.41.7-.6a5.58,5.58,0,0,0,2.08-4.14A16.58,16.58,0,0,0,189.35,61.53Zm217.92,263.8a8.28,8.28,0,0,1,.24,3.14,17.41,17.41,0,0,1-1.78,6.49c-.91,1.66-.61,2.15,1.22,2.65,3.3.89,6.6,1.79,9.91,2.64a6,6,0,0,0,4.28-.09c-1.65-3.1-2.41-6.45-3.5-9.69a4.34,4.34,0,0,0-2.59-2.84A34.09,34.09,0,0,0,407.27,325.33Z"/><path class="cls-3" d="M437.83,54.33a28.35,28.35,0,0,1,9.57,11.36c2,4.47,1.08,9,.09,13.51a38.33,38.33,0,0,1-5.92,13.33L439.93,95c3.72,1.51,5.52.92,7.45-2.6,2.71-4.93,3.88-10.39,5.11-15.82.26-1.13.5-2.26.8-3.65a20.91,20.91,0,0,1,3.89,7.15c2.17,6.24,1.84,12.24-1.82,17.92-6.44,10-14.73,17.76-26,22a5.37,5.37,0,0,1-1.93.53c-2.59-.12-3.13,1.56-3.56,3.6-1.82,8.53-.3,16.65,2.83,24.61,3.39,8.64,8.19,16.52,13.22,24.28,9.63,14.84,18.73,30,26,46.14,2.84,6.3,5.59,12.66,6.64,19.56a36.87,36.87,0,0,1,.17,10.8c-1,6.89-5.1,10.45-12.45,10.7-7,.25-12.61-2.86-17.55-7.51-3.43-3.22-5.86-7.19-8.48-11-3.28-4.81-6.62-9.57-9.93-14.34a2.92,2.92,0,0,0-1.53-1.44c.3.62.47,1,.66,1.35,3.53,6.77,7.1,13.53,10.6,20.32,3.59,7,5.17,14.46,6,22.18a59.75,59.75,0,0,0,1.86,9.72c2.4,8.42,7.94,13.38,16.53,15,2.67.5,2.65.51,2.62,3.26a339.56,339.56,0,0,1-3.09,39.53,42.13,42.13,0,0,1-3.62,11.32,133.51,133.51,0,0,1-6.65,13.06,3.38,3.38,0,0,1-1.88,1.6,73.47,73.47,0,0,0-8.71,3.86,9,9,0,0,0-5.25,7.44c-.15,1.55-.92,2-2.28,1.89-2.26-.14-4.52-.29-6.78-.41-2.87-.15-5.62.18-8.18,2.34a14.58,14.58,0,0,1,3.63-10.49,21,21,0,0,1,7.49-5.16c2.43-1.09,4.75-2.4,7.39-3.75-7.6-.53-9.85-.35-15.84,4.48-1.48,1.18-2.75,2.61-4.12,3.92s-2.23,1.28-3.5-.21-2.48-3-3.85-4.43a12.12,12.12,0,0,0-8-4,7.79,7.79,0,0,1,7-5.17c6.09-.05,12.07,1,18.08,1.73a5.23,5.23,0,0,0,1.48,0c-6.9-3.09-13.43-7.69-21.7-5.13-1.24.38-2.09.2-2.78-1.32-1.54-3.4-4.87-4.18-8.19-4.76a17.3,17.3,0,0,0-1.76-.15c.28-.83,1-1,1.64-1.32,5.6-2.7,11.39-2.35,17.21-.91,3,.73,5.87,1.64,8.8,2.46a10.68,10.68,0,0,0,4,.2c2.38-.26,4.42-1,5.61-3.43a40.32,40.32,0,0,1,3.66-5.49,17.29,17.29,0,0,0,3.5-9.49,58.59,58.59,0,0,0-.23-10.26,16,16,0,0,0-5.6-10c-5.11-4.59-10.62-8.68-15.95-13-4.53-3.65-8.87-7.52-13.3-11.3-5.74-4.91-8.49-11.19-9.62-18.43s-1.26-14.63-1.45-22a123.65,123.65,0,0,0-1.38-18.11c-.79-4.48-3.23-8.08-5.74-12.21.2,4.51.05,8.57,1,12.63-.86,0-1.15-.63-1.57-1-15.59-14.18-34-22.32-54.69-25.61-11.91-1.9-23.95-2.78-35.89-4.42-8.6-1.18-17.21-2.36-25.49-5.15a26.83,26.83,0,0,1-7.33-3.65l22.63-2.87v-.36c-.05,0-.09.1-.14.1-7.59-.28-15.17-.61-22.76-.83a46.24,46.24,0,0,0-8.79.59,4.48,4.48,0,0,1-3.13-.64,305.66,305.66,0,0,1-42.36-29.66,227.53,227.53,0,0,1-30.87-30.1,3.49,3.49,0,0,0-2.35-1.24,18,18,0,0,1-9.53-4.77c-5.45-4.73-10.42-10-16.26-14.31a1.09,1.09,0,0,1-.58-.86c-.2-4.51-3.08-7-7.25-9,5.47-.65,10.46-1.6,15.4-.16,2,.57,1.77-1,2.34-1.71.82-1.06-.4-1.16-.92-1.46-1.8-1-3.62-2.06-5.47-3a2.4,2.4,0,0,1-1.49-2.55,13.68,13.68,0,0,0-4.85-11.38,28.27,28.27,0,0,1,11.53.17,1.92,1.92,0,0,1,.85.66c3.93,4.51,7.08,9.36,7.2,15.65a14,14,0,0,0,.94,4.51c.66-2.67,1.36-5.33,1.94-8a6.46,6.46,0,0,0-.65-3.57,38.5,38.5,0,0,0-6.23-11.36c-.67-.81-.76-1.36-.11-2.19s1.37-2,2-3c1.08-1.63,1.85-3.32.83-5.33.65-.24,1,.1,1.45.28a30.46,30.46,0,0,1,11.71,9.23,2.52,2.52,0,0,1,.6,2.16c-2.31,12.53,1.43,29.18,17.17,38.53,8.41,5,17.47,8.48,26.58,11.85,10.25,3.79,20.56,7.42,30.2,12.63,5.11,2.77,10.22,5.59,14,10.15,2.76,3.31,4.64,7,4.62,11.46a10.25,10.25,0,0,1-9.33,10.61l-4.25.57c2.74,3.74,6.54,5.25,10.76,6a94.21,94.21,0,0,0,16.42,1.46c1,0,2.05,0,3,0-1.08,1.19-2.06,2.39-3.18,3.46-.76.73-.85,1,.11,1.72,2.61,1.86,5.64,2,8.59,2.09,12.56.54,24.21-2.36,34.58-9.72l.28.35c-.39.87,0,1.17.85,1.29a9.2,9.2,0,0,0,5.34-.85,55.56,55.56,0,0,0,12.41-8.4,129.61,129.61,0,0,0,12.76-12.15c1.41-1.54,2.29-1.38,3.83-.3a212.32,212.32,0,0,1,38.8,35.2,200.1,200.1,0,0,1,20.39,28,4.62,4.62,0,0,0,2,2.07c4.35,1.94,7.39,5.35,10.06,9.14,3.94,5.6,7.32,11.58,11.36,17.12,4.68,6.42,10.9,9.89,18.86,10,5.23,0,7.74-2.6,7.73-7.86s-1.9-10.06-3.89-14.8c-5.1-12.11-12.26-23.08-19.08-34.24-7.62-12.47-15.46-24.84-21.62-38.1a150,150,0,0,1-9.43-26.95c-2.51-10.08-.85-19.63,3.43-28.91,3.41-7.39,8-14,12.91-20.44a101,101,0,0,0,8.1-12.22c2.32-4.19,2.66-8.3.25-12.54A1.86,1.86,0,0,0,437.83,54.33Z"/><path class="cls-3" d="M284.37,174.73l7.2-6.83c-10.6.18-20.85.8-31.23-1.88,4.79-2.29,7.64-5.69,8.4-10.7.89-5.92-1.25-10.91-4.76-15.45-4.07-5.27-9.8-8.39-15.44-11.59a22.79,22.79,0,0,0-3.58-1.83c-1.33-.48-1.17-1.15-.73-2.18A21.65,21.65,0,0,1,255,113.2c1.15-.56,2.36-1,3.5-1.57,2.14-1.08,2.23-3.26.24-4.63a10.74,10.74,0,0,0-4.61-1.29c.12-.8.86-1,1.36-1.3a47.44,47.44,0,0,1,26.69-7.77c1.16,0,2.33,0,3.49,0s2.06-.08,2.5-1.14a2.36,2.36,0,0,0-.74-2.82c-.21-.19-.57-.21-.65-.59,10.93-.2,21.22,1,29.6,8.88,6.5,6.13,13.14,12.13,21,16.62a31.78,31.78,0,0,0,10.7,4c6.73,1.09,12.05-1.35,16.15-6.49a112.89,112.89,0,0,0,14.64-23.82c1.68-3.73,3.36-4.83,7.36-4.72s8,.23,11.94.26a2.56,2.56,0,0,1,2.27,1.22c2.54,3.58,1.91,6.93-1.88,9.14s-8,2.85-12.28,3.41c-.12,0-.25,0-.37,0-1.09.12-2.46-.11-3.22.46-.93.71.09,2,.1,3.07a21.65,21.65,0,0,1-1.84,8.37c-3.29,8.06-8.37,15-14,21.76.08-1.16.15-2.32.23-3.48.05-.72.32-1.6-.88-1.54-.92,0-2-1.17-2.69.67-1.91,5.47-5.33,10-9.31,14.13a174,174,0,0,1-18.78,17.54,46.38,46.38,0,0,1-7.38,4.77l6.22-14.07-.34-.25c-1.45,1.66-3,3.25-4.33,5A46.22,46.22,0,0,1,303.32,174a58.19,58.19,0,0,1-18,1.25A1,1,0,0,1,284.37,174.73Z"/><path class="cls-3" d="M308.66,206.77a5.49,5.49,0,0,1,4.07,2.89,16,16,0,0,1,2,9.55,5.45,5.45,0,0,1-1.75,3.15c-1.26,1.41-2.63,2.74-3.83,4.21-3.29,4-3.54,7.88-.49,12.08,6.36,8.76,14.82,13.15,25.81,11.65,4.68-.63,7.24-3.47,7.79-8.16.47-3.95.8-7.91,2.15-11.7,2.56-7.18,7.18-10.66,14.78-11,3.55-.18,7.1-.06,10.66,0A6,6,0,0,1,374,221c1.66,1.52,3.4,2.94,5,4.6-2.86-.16-5.63-.72-8.45-.75-2.57,0-5.14-.18-7.71-.19-.65,0-1.7-.47-1.91.47a2.81,2.81,0,0,0,.52,2.61A10,10,0,0,0,363,229,114.32,114.32,0,0,0,384,241.05a1.38,1.38,0,0,1,.95,1.51c.08,3.25.12,6.5.38,9.73.1,1.38-.43,1.75-1.61,2-6.57,1.57-11.8,4.91-14.73,11.27-2.43,5.3-3,11-3.1,16.65,0,1.73-.57,2-2.07,1.94-16.75-.27-32.39-5-47.62-11.55-3.24-1.4-4.85-3-4.91-6.8-.09-5.18-2.69-9.72-5.5-14-2.35-3.57-4.8-7.09-7.23-10.61a17.37,17.37,0,0,1-2.18-16.41,78.78,78.78,0,0,1,3.12-7.83c.35-.72.66-1.07,1.52-.64a5.77,5.77,0,0,0,1.94.49c4.54.48,6.85-1.86,6.31-6.39C309.08,209.3,308.87,208.17,308.66,206.77Z"/><path class="cls-3" d="M330.35,54.57,329,56.26a17.71,17.71,0,0,1-1.78-6.82,2.83,2.83,0,0,1,1.52-2.54,23.4,23.4,0,0,1,5.79-2.73A11.19,11.19,0,0,0,339,41.64a1.44,1.44,0,0,1,2.3-.09c2.53,2.13,5.09,4.21,7.59,6.38,3.06,2.66,6.45,3,10.07,1.45a2.41,2.41,0,0,1,2.23.24,43.07,43.07,0,0,1,8.71,6.08,170.29,170.29,0,0,1,16.36,16.1c.44.48.84,1,1.36,1.62-1.6.24-2.82-1-4.29-.24-1.62.89-1.93,2.13-.62,3.46a15.22,15.22,0,0,0,3.67,2.41c2.46,1.34,4.93,2.66,7.73,4.17-1.84,0-3.31,0-4.78,0a42.14,42.14,0,0,0-5.5-.06c-3.94.49-6.49,2.93-8,6.46a109.72,109.72,0,0,1-13.59,22.52c-4.94,6.46-10.52,7.86-18.32,4.82-6.31-2.46-11.54-6.59-16.63-10.9-4-3.4-7.94-6.92-11.88-10.41-1.24-1.1-2.9-1.56-3.76-3.31a6.25,6.25,0,0,1-.19-5c1.54-4.81,1.74-4.86,5.44-1.72,2.89,2.44,5.71,5,9.65,5.76,3.25.64,5.45,0,7.07-2.79a66,66,0,0,1,5.73-7.83c5.77-7.34,4-16.93-4-21.55C333.25,58,331.43,56.8,330.35,54.57Zm25.84.55c2.46,2.08,1.86,4.23.44,6.42a4.48,4.48,0,0,0-.32.66c-1.18,2.77-.74,4.29,1.87,5.85a30.1,30.1,0,0,0,11.08,3.57c1,.16,1.46-.08,1.19-1.25a21.34,21.34,0,0,0-3.79-8.45A18.22,18.22,0,0,0,356.19,55.12Z"/><path class="cls-3" d="M274.16,46.5c.5.68-.12,1.15-.39,1.62a14.38,14.38,0,0,1-11.94,7.71,108.05,108.05,0,0,0-12,1.47,2.26,2.26,0,0,0-2,1.77,23.28,23.28,0,0,0,.52,14.25c2.67,8.3,7.49,15.34,13,22,.38.47.77.93,1.27,1.52-6.87,2.76-12.69,6.88-18.51,12.1h10.45c-.09,1.09-.81,1-1.23,1.24A24.54,24.54,0,0,0,241.08,123c-.39,1-.71,1.28-1.83.85a4.36,4.36,0,0,1-3.14-3.69c-2.32-12.8-6.7-25-11.24-37.13a2.88,2.88,0,0,1,.39-3c4.8-7.23,9.05-14.83,14.21-21.83,3.24-4.39,6.56-8.71,10.87-12.13A15.54,15.54,0,0,1,261,42.4c2.18.09,2.81.45,3.24,2.55.59,2.82,3.88,4.24,6.76,3.33a10.64,10.64,0,0,0,3.21-1.74Z"/><path class="cls-3" d="M269.76,235.75a15.22,15.22,0,0,1,2.75.18c1.91.49,2.46-.56,2.74-2.13a1.06,1.06,0,0,0-.56-1.33,4.91,4.91,0,0,1-2.29-4.53c0-1.59,0-3.18,0-4.77,0-3.93-.47-4.54-4.15-5.65-.52-.16-1-.3-1.75-.5,2.62-1.59,5.33-1.48,8.06-1.16,2.3.27,4.55,1,6.88,1,3.47.11,5.24-1.12,6.31-4.39a4.29,4.29,0,0,0,.16-.71c.35-2.33,1.95-4.95-1.74-6.37a5.37,5.37,0,0,1,3.65,1.76c2.25,2.07,4.41,4.24,6.68,6.29.72.65.41,1.12.11,1.74a67.38,67.38,0,0,0-3.77,9.72,19.75,19.75,0,0,0,2.43,17.36c1.94,3,4,5.88,6,8.8,2.93,4.25,5.61,8.61,6.6,13.78.2,1.08.77,2.64.11,3.14s-1.89-.64-2.8-1.17c-8.56-5-16.48-10.81-22.51-18.84a3,3,0,0,0-2.24-1,14.08,14.08,0,0,1-6.84-2.9c-1.68-1.37-3.1-2.89-3.06-5.34A12.65,12.65,0,0,0,269.76,235.75Z"/><path class="cls-3" d="M222.93,77.26c-1.92-5.32-2.26-10.86-2.67-16.4a4.89,4.89,0,0,1,1-2.72A35.54,35.54,0,0,1,242.47,41.2a4,4,0,0,0,2.62-2c1.24-2.24,3.36-3.69,5.12-5.47A12.29,12.29,0,0,1,256,30.14a10.37,10.37,0,0,0,6.82-5.88c2,2.19,3.14,4.47,2.53,7.37-.41,1.92-.72,3.85-1.12,5.76-.37,1.75-1.91,1.93-3.17,1.79-5.45-.62-9.78,1.68-13.68,5-6.24,5.37-10.85,12.1-15.33,18.9-2.72,4.14-5.26,8.39-7.91,12.57C223.83,76.24,223.62,76.93,222.93,77.26Z"/><path class="cls-4" d="M303.16,44c.2,6.08,2.7,11.34,5.88,16.33,4.17,6.53,9.44,12.17,14.55,17.95a61.11,61.11,0,0,1,6,7.45c.3.48.92,1,.57,1.6s-1.24.39-1.86.3a13.45,13.45,0,0,1-6-2.15,56.59,56.59,0,0,1-22-29.56,28,28,0,0,1-1.3-11.21c.16-1.73.7-2.92,2.68-3.34,1.48-.31,1.73.07,1.55,1.35A10.92,10.92,0,0,0,303.16,44Z"/><path class="cls-3" d="M220.83,52.47a42.72,42.72,0,0,1,2.11-13.32c1.16-3.84,1.17-3.84.54-7.43l2.37,1.56a5.69,5.69,0,0,0,6.39.17,29.27,29.27,0,0,0,3.95-3A7.18,7.18,0,0,1,238.46,29c2-.65,2.66-1.77,2.12-3.83-.33-1.23-.83-2.41-1.31-3.77a7.55,7.55,0,0,1,4.39,2.37A49.91,49.91,0,0,0,249,29.26c.9.69.15,1-.24,1.38-1.77,1.59-3.79,3-5.12,5a8.43,8.43,0,0,1-4.61,3.24,39.13,39.13,0,0,0-17.19,12.37Z"/><path class="cls-3" d="M189.35,61.53a16.58,16.58,0,0,1,2.13,9,5.58,5.58,0,0,1-2.08,4.14c-.24.19-.44.43-.7.6-3.67,2.42-7.14,5-9.77,8.69-1.17,1.62-1.48,1.45-2.07-.45a30.26,30.26,0,0,1-.79-14c.14-.93.55-1.18,1.41-1.31,2.78-.39,5.61-.64,8.21-1.8C187.65,65.59,189.45,64.53,189.35,61.53Z"/><path class="cls-3" d="M407.27,325.33a34.09,34.09,0,0,1,7.78,2.3,4.34,4.34,0,0,1,2.59,2.84c1.09,3.24,1.85,6.59,3.5,9.69a6,6,0,0,1-4.28.09c-3.31-.85-6.61-1.75-9.91-2.64-1.83-.5-2.13-1-1.22-2.65a17.41,17.41,0,0,0,1.78-6.49A8.28,8.28,0,0,0,407.27,325.33Z"/><path class="cls-4" d="M368,228.2a45,45,0,0,1,10.72,1.17c4.06,1,4.68,1.76,5,5.88,0,.61.08,1.21.14,2.08A121,121,0,0,1,368,228.21Z"/><path class="cls-3" d="M322.2,169.15c.14-.05.35-.19.4-.14.21.19.08.36-.12.49Z"/><polygon class="cls-3" points="367.96 228.21 367.91 228.16 367.96 228.2 367.96 228.21"/><path class="cls-3" d="M437.55,54.54c0-.14-.1-.38-.05-.41s.27,0,.33.2A1.86,1.86,0,0,1,437.55,54.54Z"/><path class="cls-2" d="M356.19,55.12a18.22,18.22,0,0,1,10.47,6.8,21.34,21.34,0,0,1,3.79,8.45c.27,1.17-.17,1.41-1.19,1.25a30.1,30.1,0,0,1-11.08-3.57c-2.61-1.56-3.05-3.08-1.87-5.85a4.48,4.48,0,0,1,.32-.66C358.05,59.35,358.65,57.2,356.19,55.12Z"/></g></svg>