<svg xmlns="http://www.w3.org/2000/svg" viewBox="0 0 500 200"><defs><style>.cls-1{fill:#999;}.cls-2{fill:#b3b3b3;}.cls-3{fill:gray;}.cls-4{fill:#666;}.cls-5{fill:none;stroke:gray;stroke-miterlimit:10;stroke-width:2px;}</style></defs><title>year_overview_icon</title><g id="Ebene_2" data-name="Ebene 2"><rect class="cls-1" width="500" height="200"/></g><g id="Ebene_1" data-name="Ebene 1"><rect class="cls-2" x="183.55" y="25" width="132.45" height="7.14"/><rect class="cls-2" x="183.55" y="105.71" width="132.45" height="7.14"/><rect class="cls-3" x="179.41" y="64" width="42.86" height="7.14" transform="translate(133.26 268.41) rotate(-90)"/><rect class="cls-4" x="195.84" y="67.57" width="35.71" height="7.14" transform="translate(142.55 284.84) rotate(-90)"/><rect class="cls-3" x="209.84" y="68.43" width="34" height="7.14" transform="translate(154.84 298.84) rotate(-90)"/><rect class="cls-4" x="224.69" y="70.43" width="30" height="7.14" transform="translate(165.69 313.69) rotate(-90)"/><rect class="cls-3" x="243.84" y="75.43" width="20" height="7.14" transform="translate(174.84 332.84) rotate(-90)"/><rect class="cls-4" x="259.19" y="77.93" width="15" height="7.14" transform="translate(185.19 348.19) rotate(-90)"/><rect class="cls-3" x="275.84" y="81.43" width="8" height="7.14" transform="translate(194.84 364.84) rotate(-90)"/><rect class="cls-4" x="290.19" y="82.93" width="5" height="7.14" transform="translate(206.19 379.19) rotate(-90)"/><polyline class="cls-5" points="191.91 43.07 191.91 94.5 309 94.5"/><rect class="cls-3" x="195.84" y="161.43" width="10" height="7.14" transform="translate(35.84 365.84) rotate(-90)"/><rect class="cls-4" x="195.84" y="148.57" width="35.71" height="7.14" transform="translate(61.55 365.84) rotate(-90)"/><rect class="cls-3" x="220.34" y="159.93" width="13" height="7.14" transform="translate(63.34 390.34) rotate(-90)"/><rect class="cls-4" x="224.69" y="151.43" width="30" height="7.14" transform="translate(84.69 394.69) rotate(-90)"/><rect class="cls-3" x="246.84" y="159.43" width="14" height="7.14" transform="translate(90.84 416.84) rotate(-90)"/><rect class="cls-4" x="250.19" y="149.93" width="33" height="7.14" transform="translate(113.19 420.19) rotate(-90)"/><rect class="cls-3" x="275.84" y="162.43" width="8" height="7.14" transform="translate(113.84 445.84) rotate(-90)"/><rect class="cls-4" x="275.69" y="149.43" width="34" height="7.14" transform="translate(139.69 445.69) rotate(-90)"/><polyline class="cls-5" points="191.91 124.07 191.91 175.5 309 175.5"/></g></svg>