<svg xmlns="http://www.w3.org/2000/svg" viewBox="0 0 500 200"><defs><style>.cls-1{fill:#999;}.cls-2,.cls-5{fill:gray;}.cls-2,.cls-3{stroke:#999;stroke-width:3px;}.cls-2,.cls-3,.cls-7{stroke-miterlimit:10;}.cls-3,.cls-6{fill:#666;}.cls-4{fill:#b3b3b3;}.cls-7{fill:none;stroke:gray;stroke-width:2px;}</style></defs><title>yearly_report_icon</title><g id="Ebene_2" data-name="Ebene 2"><rect class="cls-1" width="500" height="200"/></g><g id="Ebene_1" data-name="Ebene 1"><path class="cls-2" d="M288.91,39.29a27.5,27.5,0,1,0,19.74,46.94L288.91,66.48Z"/><path class="cls-3" d="M289.21,39.29h-.3V66.48l19.74,19.75a27.49,27.49,0,0,0-19.44-46.94Z"/><path class="cls-2" d="M210.34,39.29a27.5,27.5,0,1,0,19.74,46.94L210.34,66.48Z"/><path class="cls-3" d="M210.64,39.29h-.3V66.48l19.74,19.75a27.49,27.49,0,0,0-19.44-46.94Z"/><rect class="cls-4" x="183.55" y="25" width="55" height="7.14"/><rect class="cls-4" x="261.41" y="25" width="55" height="7.14"/><path class="cls-2" d="M210.75,120A27.5,27.5,0,1,0,230.49,167L210.75,147.2Z"/><path class="cls-3" d="M211.05,120h-.3V147.2L230.49,167A27.5,27.5,0,0,0,211.05,120Z"/><rect class="cls-4" x="183.55" y="105.71" width="55" height="7.14"/><rect class="cls-4" x="261.41" y="105.71" width="55" height="7.14"/><rect class="cls-5" x="267.84" y="123.57" width="42.86" height="7.14"/><rect class="cls-6" x="267.84" y="136.43" width="35.71" height="7.14"/><rect class="cls-5" x="267.84" y="149.29" width="18.57" height="7.14"/><rect class="cls-6" x="267.84" y="162.14" width="9.29" height="7.14"/><polyline class="cls-7" points="263.91 121.07 263.91 172.5 315.33 172.5"/></g></svg>